<svg xmlns="http://www.w3.org/2000/svg" xmlns:xlink="http://www.w3.org/1999/xlink" version="1.1" x="0px" y="0px" viewBox="0 0 100 125" enable-background="new 0 0 100 100" xml:space="preserve"><g display="none"><circle display="inline" opacity="0.2" fill="none" stroke="#000000" stroke-width="3" stroke-linecap="round" stroke-linejoin="round" stroke-miterlimit="10" cx="50" cy="50" r="39.083"/><g display="inline" opacity="0.2"><line fill="none" stroke="#000000" stroke-width="3" stroke-linecap="round" stroke-linejoin="round" stroke-miterlimit="10" x1="50" y1="28.895" x2="50" y2="71.105"/><line fill="none" stroke="#000000" stroke-width="3" stroke-linecap="round" stroke-linejoin="round" stroke-miterlimit="10" x1="28.895" y1="50" x2="71.105" y2="50"/></g></g><g><g><g><path d="M13.5,49c-0.094-18.992,21.493-36.861,40.108-33.669c18.598,3.188,32.816,18.083,32.091,37.235     c-0.713,18.824-18.367,31.152-35.891,31.424c-8.605,0.133-18.042-2.041-25.585-6.202c-4.399-2.427-7.9-6.294-9.508-11.073     c-1.707-5.075-0.942-10.99-1.823-16.261c-0.637-3.81-6.418-2.189-5.785,1.595c0.994,5.951,0.386,11.99,2.334,17.783     c1.632,4.851,5.44,8.654,9.427,11.645c8.373,6.28,20.73,8.39,30.94,8.515c21.464,0.262,40.273-15.766,41.891-37.424     c1.677-22.45-17.468-40.843-38.918-43.406C31.104,6.569,7.392,27.047,7.5,49C7.52,52.868,13.52,52.87,13.5,49L13.5,49z"/></g></g><g><g><path d="M47.5,28.75c0.396,7.886,0.44,15.75-0.131,23.628c-0.277,3.824-1.022,7.571-1.48,11.372     c-0.173,1.44-0.388,2.883-0.39,4.337c-0.001,0.87-0.65,3.31,0.253,1.572c1.828,0.239,3.655,0.478,5.483,0.717     c-0.031-0.141-0.062-0.282-0.093-0.423c-0.826-3.779-6.609-2.176-5.785,1.595c0.03,0.141,0.062,0.283,0.092,0.424     c0.548,2.503,4.308,2.978,5.483,0.716c0.721-1.384,0.557-3.084,0.566-4.601c0.025-3.982,1.094-7.89,1.501-11.837     c0.943-9.157,0.96-18.313,0.5-27.5C53.307,24.9,47.307,24.881,47.5,28.75L47.5,28.75z"/></g></g><g><g><path d="M25.5,52.25c7.459,0.878,14.935,0.989,22.437,0.968c7.383-0.02,15.253,1.028,22.563,0.282c3.811-0.389,3.849-6.393,0-6     c-6.72,0.686-13.905-0.322-20.69-0.29c-8.126,0.038-16.229-0.009-24.31-0.96C21.662,45.798,21.705,51.803,25.5,52.25L25.5,52.25z     "/></g></g></g><text x="0" y="115" fill="#000000" font-size="5px" font-weight="bold" font-family="'Helvetica Neue', Helvetica, Arial-Unicode, Arial, Sans-serif">Created by Linseed Studio</text><text x="0" y="120" fill="#000000" font-size="5px" font-weight="bold" font-family="'Helvetica Neue', Helvetica, Arial-Unicode, Arial, Sans-serif">from the Noun Project</text></svg>