<svg xmlns="http://www.w3.org/2000/svg" xmlns:xlink="http://www.w3.org/1999/xlink" width="1080" zoomAndPan="magnify" viewBox="0 0 810 809.999993" height="1080" preserveAspectRatio="xMidYMid meet" version="1.0"><path fill="#000000" d="M 234.328125 416.714844 C 233.886719 327.832031 334.914062 244.207031 422.035156 259.144531 C 509.074219 274.066406 575.613281 343.773438 572.21875 433.402344 C 568.882812 521.5 486.261719 579.195312 404.25 580.46875 C 363.980469 581.089844 319.8125 570.914062 284.511719 551.441406 C 263.925781 540.082031 247.539062 521.984375 240.015625 499.621094 C 232.027344 475.871094 235.605469 448.1875 231.484375 423.519531 C 228.503906 405.6875 201.445312 413.277344 204.410156 430.984375 C 209.0625 458.835938 206.214844 487.097656 215.332031 514.207031 C 222.96875 536.910156 240.792969 554.707031 259.449219 568.707031 C 298.636719 598.097656 356.46875 607.972656 404.25 608.554688 C 504.703125 609.78125 592.726562 534.773438 600.300781 433.414062 C 608.148438 328.347656 518.550781 242.269531 418.164062 230.273438 C 316.714844 218.140625 205.742188 313.976562 206.25 416.714844 C 206.34375 434.816406 234.421875 434.828125 234.328125 416.714844 Z M 234.328125 416.714844 " fill-opacity="1" fill-rule="nonzero"/><path fill="#000000" d="M 393.449219 321.945312 C 395.300781 358.851562 395.507812 395.65625 392.835938 432.523438 C 391.539062 450.421875 388.050781 467.957031 385.910156 485.746094 C 385.097656 492.484375 384.09375 499.238281 384.082031 506.042969 C 384.078125 510.113281 381.042969 521.53125 385.269531 513.398438 C 393.824219 514.515625 402.375 515.636719 410.929688 516.753906 C 410.785156 516.09375 410.636719 515.433594 410.492188 514.773438 C 406.628906 497.089844 379.5625 504.589844 383.417969 522.238281 C 383.558594 522.898438 383.710938 523.5625 383.851562 524.222656 C 386.414062 535.9375 404.011719 538.160156 409.511719 527.574219 C 412.882812 521.097656 412.117188 513.140625 412.160156 506.042969 C 412.277344 487.40625 417.277344 469.117188 419.183594 450.644531 C 423.597656 407.789062 423.675781 364.941406 421.523438 321.945312 C 420.625 303.929688 392.546875 303.839844 393.449219 321.945312 Z M 393.449219 321.945312 " fill-opacity="1" fill-rule="nonzero"/><path fill="#000000" d="M 290.488281 431.925781 C 325.398438 436.035156 360.382812 436.554688 395.492188 436.457031 C 430.046875 436.363281 466.878906 441.265625 501.089844 437.773438 C 518.925781 435.953125 519.101562 407.855469 501.089844 409.695312 C 469.640625 412.90625 436.011719 408.1875 404.257812 408.339844 C 366.230469 408.515625 328.308594 408.296875 290.488281 403.84375 C 272.527344 401.730469 272.726562 429.832031 290.488281 431.925781 Z M 290.488281 431.925781 " fill-opacity="1" fill-rule="nonzero"/></svg>