<svg xmlns="http://www.w3.org/2000/svg" xmlns:xlink="http://www.w3.org/1999/xlink" width="1080" zoomAndPan="magnify" viewBox="0 0 810 809.999993" height="1080" preserveAspectRatio="xMidYMid meet" version="1.0"><defs><clipPath id="ae8bfe125b"><path d="M 160.175781 160.175781 L 643 160.175781 L 643 649.925781 L 160.175781 649.925781 Z M 160.175781 160.175781 " clip-rule="nonzero"/></clipPath></defs><g clip-path="url(#ae8bfe125b)"><path fill="#fff9a2" d="M 640.847656 362.722656 C 636.101562 327.703125 621.351562 300.597656 602.570312 266.285156 C 583.78125 231.960938 549.703125 207.503906 525.65625 190.433594 C 501.613281 173.382812 468.246094 165.457031 436.113281 162.289062 C 403.980469 159.121094 364.167969 158.90625 337.421875 165.984375 C 300.199219 175.828125 276.320312 186.027344 251.042969 209.085938 C 225.765625 232.144531 206.960938 255.542969 190.984375 281.769531 C 174.980469 307.988281 162.855469 348.109375 160.941406 367.648438 C 159.011719 387.179688 160.589844 413.933594 167.445312 444.382812 C 174.285156 474.820312 189.738281 503.140625 211.863281 537.292969 C 233.992188 571.433594 265.066406 593.066406 301.070312 614.902344 C 337.058594 636.722656 412.566406 653.261719 441.195312 649.214844 C 469.824219 645.175781 509.15625 635.324219 549.542969 603.296875 C 589.9375 571.269531 612.410156 518.296875 624.695312 485.214844 C 636.992188 452.125 645.597656 397.746094 640.855469 362.730469 Z M 583.949219 513.003906 C 582.722656 513.003906 567.269531 484.671875 566.398438 482.554688 C 565.722656 480.945312 572.71875 467.957031 573.421875 467.789062 C 574.125 467.605469 590.453125 497.519531 590.277344 498.222656 C 590.097656 498.925781 585.179688 513.003906 583.957031 513.003906 Z M 524.609375 325.585938 C 523.90625 323.65625 523.554688 321.898438 523.730469 321.191406 C 523.90625 320.488281 528.648438 308.523438 527.25 298.140625 C 525.832031 287.757812 521.28125 271.210938 521.625 270.691406 C 521.976562 270.15625 540.414062 284.945312 550.949219 308.699219 C 561.484375 332.453125 570.445312 350.578125 573.78125 382.78125 C 577.117188 414.984375 575.539062 438.738281 564.125 460.390625 C 552.710938 482.042969 544.464844 494.359375 538.136719 500.863281 C 531.824219 507.363281 518.648438 513.53125 517.074219 513.53125 C 515.496094 513.53125 509.882812 485.023438 505.484375 476.042969 C 501.089844 467.078125 493.1875 455.285156 493.363281 453.351562 C 493.363281 453.351562 506.523438 441.570312 511.097656 434.53125 C 515.664062 427.492188 530.59375 402.671875 529.886719 375.222656 C 529.183594 347.757812 525.320312 327.527344 524.609375 325.59375 Z M 596.953125 488.71875 C 595.539062 489.945312 576.632812 457.335938 577.628906 456.34375 C 579.210938 454.765625 584.476562 437.875 585.53125 437.167969 C 586.585938 436.464844 603.96875 468.140625 603.96875 470.25 C 603.96875 472.363281 598.355469 487.496094 596.945312 488.726562 Z M 620.824219 402.136719 C 618.550781 400.203125 603.976562 367.480469 602.042969 366.769531 C 600.113281 366.0625 595.722656 373.628906 596.761719 376.445312 C 597.804688 379.261719 617.136719 411.105469 617.664062 414.101562 C 618.199219 417.085938 616.257812 432.402344 615.738281 430.117188 C 615.203125 427.820312 600.632812 399.496094 598.882812 399.496094 C 597.121094 399.496094 592.378906 405.664062 592.5625 406.71875 C 592.738281 407.777344 611.703125 442.96875 611.703125 445.257812 C 611.703125 447.550781 609.074219 461.980469 607.496094 459.332031 C 605.90625 456.703125 587.46875 426.082031 587.125 425.210938 C 586.769531 424.324219 587.476562 382.269531 585.363281 363.441406 C 583.265625 344.621094 576.242188 307.308594 550.078125 276.855469 C 523.914062 246.40625 496.171875 225.46875 456.128906 215.957031 C 416.085938 206.449219 391.863281 206.992188 361.839844 208.398438 C 331.804688 209.804688 288.433594 227.050781 258.753906 269.988281 C 229.070312 312.921875 224.6875 324.886719 218.015625 355.867188 C 211.359375 386.835938 218.726562 432.769531 224.167969 452.648438 C 229.613281 472.539062 243.828125 501.398438 259.988281 516.355469 C 276.144531 531.3125 296.328125 540.636719 312.140625 546.445312 C 327.957031 552.25 351.828125 555.777344 353.761719 555.066406 C 355.691406 554.363281 354.816406 530.078125 353.761719 527.265625 C 352.707031 524.449219 351.832031 523.042969 345.332031 523.394531 C 338.84375 523.746094 327.078125 523.570312 319.347656 520.050781 C 311.621094 516.53125 305.300781 509.492188 300.910156 501.574219 C 296.519531 493.65625 290.199219 483.976562 286.863281 480.28125 C 283.527344 476.578125 276.503906 470.242188 277.378906 469.011719 C 278.265625 467.789062 291.433594 466.546875 300.558594 469.363281 C 309.703125 472.179688 325.148438 482.5625 331.820312 486.785156 C 338.492188 491.007812 347.097656 497.167969 350.082031 497.167969 C 353.066406 497.167969 359.222656 483.089844 361.863281 479.746094 C 364.488281 476.402344 370.640625 465.132812 368 462.683594 C 365.367188 460.214844 349.210938 459.507812 341.128906 457.40625 C 333.050781 455.285156 318.484375 447.367188 308.117188 433.820312 C 297.757812 420.277344 293.015625 400.035156 293.199219 385.773438 C 293.367188 371.527344 307.238281 344.074219 310.046875 338.621094 C 312.855469 333.167969 316.550781 328.0625 314.789062 326.128906 C 313.03125 324.199219 305.484375 313.640625 303.726562 306.25 C 301.980469 298.859375 308.300781 280.734375 309.527344 280.03125 C 310.75 279.328125 319.179688 281.617188 325.515625 282.496094 C 331.828125 283.375 345.867188 287.238281 351.144531 290.757812 C 356.425781 294.277344 358.335938 296.039062 361.320312 296.039062 C 364.304688 296.039062 387.484375 290.757812 395.398438 289 C 403.300781 287.238281 426.648438 284.429688 435.433594 286.191406 C 444.214844 287.949219 457.390625 295.867188 459.664062 294.453125 C 461.941406 293.054688 467.214844 283.023438 478.453125 280.207031 C 489.699219 277.394531 508.828125 276.152344 511.121094 278.097656 C 513.394531 280.03125 516.730469 300.269531 514.976562 310.648438 C 513.21875 321.03125 510.234375 327.023438 511.992188 329.832031 C 513.753906 332.644531 522.167969 351.648438 517.785156 368.542969 C 513.386719 385.4375 507.074219 409.550781 486.171875 425.554688 C 465.285156 441.570312 458.429688 444.207031 455.96875 445.792969 C 453.519531 447.382812 455.96875 452.308594 458.246094 454.246094 C 460.527344 456.183594 475.980469 466.5625 483.53125 489.792969 C 491.085938 513.027344 492.316406 526.742188 492.316406 531.503906 C 492.316406 536.261719 497.769531 538.191406 501.980469 537.316406 C 506.1875 536.429688 511.105469 533.4375 517.96875 528.160156 C 524.808594 522.878906 544.300781 508.980469 545.703125 509.683594 C 547.109375 510.386719 559.222656 536.253906 562.207031 537.132812 C 565.1875 538.011719 567.300781 535.910156 567.636719 534.148438 C 567.996094 532.390625 558.164062 513.554688 555.527344 508.445312 C 552.894531 503.347656 550.957031 500.355469 551.664062 498.773438 C 552.367188 497.191406 558.332031 489.976562 559.566406 491.199219 C 560.789062 492.4375 573.796875 513.027344 576.066406 516.546875 C 578.347656 520.066406 580.109375 520.769531 577.652344 524.992188 C 575.203125 529.222656 566.589844 540.484375 562.375 544.179688 C 558.164062 547.875 556.582031 552.441406 554.109375 550.515625 C 551.664062 548.578125 539.367188 526.414062 537.433594 526.054688 C 535.519531 525.695312 530.242188 530.445312 530.777344 532.023438 C 531.3125 533.597656 547.453125 557.546875 547.453125 558.601562 C 547.453125 559.65625 539.367188 570.039062 530.945312 576.550781 C 522.519531 583.0625 517.066406 587.109375 515.488281 584.8125 C 513.898438 582.53125 497.394531 544.171875 494.757812 543.652344 C 492.132812 543.117188 486.683594 545.050781 487.566406 548.21875 C 488.445312 551.386719 508.636719 586.933594 508.453125 588.691406 C 508.269531 590.453125 501.796875 594.675781 499.851562 592.914062 C 497.925781 591.15625 476.671875 547.332031 474.039062 546.980469 C 471.40625 546.628906 466.847656 547.859375 466.847656 552.082031 C 466.847656 556.304688 494.238281 595.195312 493.011719 597.296875 C 491.773438 599.417969 486.683594 604.167969 484.75 602.234375 C 482.820312 600.296875 457.703125 550.148438 455.953125 549.796875 C 454.191406 549.445312 447.875 551.203125 447.875 552.433594 C 447.875 553.660156 476.320312 606.449219 476.140625 607.671875 C 475.964844 608.914062 465.078125 614.191406 462.625 612.953125 C 460.175781 611.726562 435.234375 555.953125 433.296875 554.714844 C 431.371094 553.492188 423.644531 558.769531 424.171875 559.457031 C 424.707031 560.171875 454.902344 612.609375 453.320312 615.246094 C 451.738281 617.886719 444.714844 618.765625 443.488281 617.542969 C 442.25 616.304688 413.980469 562.28125 412.046875 561.753906 C 410.109375 561.226562 404.148438 564.21875 404.675781 566.496094 C 405.214844 568.792969 434.707031 618.0625 433.828125 618.414062 C 432.945312 618.765625 425.394531 619.117188 424.171875 618.238281 C 422.945312 617.367188 397.46875 577.421875 394.316406 576.542969 C 391.167969 575.664062 387.472656 580.414062 387.472656 581.46875 C 387.472656 582.523438 411.875 617.71875 410.652344 618.070312 C 409.429688 618.421875 401.347656 617.71875 399.589844 616.664062 C 397.828125 615.605469 380.976562 585.691406 378.703125 584.988281 C 376.40625 584.285156 370.976562 588.332031 371.664062 590.09375 C 372.375 591.851562 388.878906 614.382812 386.773438 614.382812 C 384.671875 614.382812 379.046875 614.558594 376.597656 613.160156 C 374.136719 611.742188 362.546875 588.164062 360.433594 587.453125 C 358.328125 586.765625 354.113281 589.921875 353.929688 590.804688 C 353.761719 591.683594 362.898438 608.222656 360.96875 608.398438 C 359.035156 608.574219 352.707031 608.222656 351.128906 606.992188 C 349.546875 605.753906 338.835938 587.804688 337.257812 587.277344 C 335.675781 586.742188 330.589844 589.570312 331.117188 591.148438 C 331.644531 592.722656 336.730469 600.464844 334.980469 600.632812 C 333.21875 600.816406 297.046875 590.789062 277.5625 577.414062 C 258.066406 564.042969 221.710938 522.863281 210.480469 510.371094 C 199.234375 497.878906 183.609375 460.566406 178.171875 440.328125 C 172.738281 420.09375 171.332031 390.003906 171.515625 373.996094 C 171.683594 357.976562 184.152344 315.929688 191.175781 301.660156 C 198.199219 287.40625 225.246094 248.695312 243.507812 230.21875 C 261.769531 211.742188 291.269531 189.921875 322.347656 180.597656 C 353.425781 171.269531 379.589844 169.335938 393.988281 169.503906 C 428.226562 169.929688 467.207031 174.964844 491.078125 183.058594 C 514.960938 191.152344 559.566406 226.347656 570.628906 239.015625 C 581.691406 251.6875 595.035156 274.386719 602.9375 290.925781 C 610.847656 307.453125 616.632812 321.714844 615.0625 320.480469 C 613.496094 319.25 603.648438 302.003906 601.722656 302.179688 C 599.808594 302.363281 595.585938 305.355469 596.289062 307.644531 C 596.992188 309.9375 614.902344 337.734375 616.65625 341.253906 C 618.414062 344.773438 620.175781 348.828125 620.34375 349.515625 C 620.519531 350.226562 622.792969 374.335938 622.101562 373.101562 C 621.398438 371.878906 604.367188 340.894531 602.082031 340.019531 C 599.800781 339.140625 598.042969 342.660156 598.5625 343.539062 C 599.097656 344.421875 622.277344 384.011719 622.277344 385.949219 C 622.253906 387.882812 623.136719 404.082031 620.855469 402.136719 Z M 302.296875 326.824219 C 305.984375 330.34375 297.550781 335.972656 291.585938 349.164062 C 285.617188 362.367188 280.167969 388.410156 283.320312 404.074219 C 286.488281 419.726562 293.6875 438.195312 310.542969 452.808594 C 327.398438 467.421875 350.226562 468.292969 352.683594 469.523438 C 355.132812 470.75 348.476562 479.546875 347.066406 481.308594 C 345.660156 483.066406 345.84375 482.722656 342.5 480.960938 C 339.171875 479.203125 320.03125 462.832031 300.015625 458.621094 C 279.992188 454.390625 267.707031 460.382812 263.316406 464.246094 C 258.925781 468.117188 263.851562 475.15625 269.457031 479.378906 C 275.074219 483.601562 281.578125 491.519531 289.824219 506.652344 C 298.085938 521.785156 303.167969 525.128906 316.527344 529.703125 C 329.859375 534.296875 340.394531 534.464844 342.507812 534.640625 C 344.621094 534.816406 344.097656 540.972656 342.691406 543.261719 C 341.285156 545.558594 335.84375 539.742188 327.773438 537.449219 C 319.6875 535.167969 304.589844 533.761719 296.160156 528.480469 C 287.730469 523.203125 260.507812 491.351562 255.417969 477.449219 C 250.324219 463.550781 239.613281 432.234375 239.429688 416.566406 C 239.261719 400.90625 238.03125 374.160156 244.171875 354.097656 C 250.324219 334.039062 263.851562 300.773438 284.394531 277.898438 C 304.933594 255.023438 334.613281 237.425781 378.511719 232.683594 C 422.410156 227.921875 461.039062 241.121094 485.101562 249.390625 C 509.15625 257.667969 514.785156 262.78125 514.785156 264.355469 C 514.785156 264.355469 507.578125 265.761719 488.621094 266.996094 C 469.648438 268.234375 457.359375 278.265625 456.65625 279.496094 C 455.953125 280.722656 436.632812 276.328125 416.445312 274.753906 C 396.246094 273.160156 368.320312 282.136719 367.28125 282.136719 C 366.238281 282.136719 363.417969 281.953125 355.867188 278.960938 C 348.316406 275.976562 312.316406 268.050781 308.101562 268.402344 C 303.894531 268.753906 294.582031 280.183594 292.648438 297.261719 C 290.71875 314.339844 298.617188 323.3125 302.3125 326.832031 Z M 445.242188 177.597656 C 413.796875 173.199219 393.738281 175.257812 392.375 176.542969 C 389.222656 179.523438 390.277344 185.339844 394.132812 186.027344 C 398 186.738281 416.78125 183.75 441.546875 186.210938 C 466.304688 188.675781 484.566406 197.992188 488.429688 198.175781 C 492.292969 198.351562 494.574219 192.019531 492.46875 189.730469 C 490.355469 187.4375 476.664062 181.988281 445.234375 177.589844 Z M 212.382812 295.316406 C 187.445312 321.175781 182.882812 355.148438 180.789062 366.777344 C 178.691406 378.40625 186.21875 383.300781 189.738281 381.726562 C 193.257812 380.140625 189.5625 370.289062 197.640625 344.421875 C 205.722656 318.554688 216.078125 309.226562 219.414062 302.722656 C 222.742188 296.199219 214.160156 293.480469 212.378906 295.316406 Z M 327.222656 395.449219 C 324.414062 388.058594 326.519531 378.390625 328.277344 370.113281 C 330.035156 361.847656 322.125 362.191406 320.199219 364.128906 C 315.101562 369.230469 313.175781 385.421875 315.101562 395.449219 C 317.039062 405.472656 325.996094 420.261719 330.742188 422.550781 C 335.484375 424.84375 340.042969 421.84375 339.003906 416.917969 C 337.933594 411.992188 330.035156 402.839844 327.222656 395.449219 Z M 298.609375 476.578125 C 290.878906 481.679688 298.425781 486.785156 301.59375 486.785156 C 304.757812 486.785156 307.902344 485.558594 306.503906 480.625 C 305.097656 475.699219 300.4375 475.363281 298.601562 476.570312 Z M 314.582031 490.480469 C 308.96875 493.648438 314.046875 500.863281 317.742188 501.039062 C 321.4375 501.214844 324.414062 498.398438 324.589844 494.703125 C 324.773438 491.007812 317.039062 489.09375 314.589844 490.480469 Z M 336.539062 500.332031 C 328.628906 502.09375 331.261719 509.84375 335.125 510.371094 C 338.988281 510.898438 342.316406 509.492188 343.386719 505.445312 C 344.429688 501.390625 341.503906 499.230469 336.53125 500.339844 Z M 477.542969 297.796875 C 479.300781 297.972656 484.558594 298.851562 487.015625 298.851562 C 489.476562 298.851562 489.308594 313.28125 490.535156 317.671875 C 491.757812 322.082031 498.261719 322.265625 500.707031 319.792969 C 503.171875 317.328125 499.835938 293.75 498.085938 291.460938 C 496.324219 289.167969 479.371094 292.378906 477.199219 292.863281 C 475.605469 293.207031 475.78125 297.605469 477.542969 297.789062 Z M 524.242188 576.535156 C 526.003906 576.886719 530.5625 574.773438 530.914062 572.136719 C 531.257812 569.496094 517.738281 537.476562 516.507812 536.765625 C 515.285156 536.0625 507.203125 538.769531 507.203125 540.285156 C 507.203125 543.269531 522.492188 576.183594 524.242188 576.535156 Z M 524.242188 576.535156 " fill-opacity="1" fill-rule="nonzero"/></g></svg>