<svg xmlns="http://www.w3.org/2000/svg" xmlns:xlink="http://www.w3.org/1999/xlink" width="1080" zoomAndPan="magnify" viewBox="0 0 810 809.999993" height="1080" preserveAspectRatio="xMidYMid meet" version="1.0"><defs><clipPath id="c238804455"><path d="M 160.175781 160.175781 L 643 160.175781 L 643 649.925781 L 160.175781 649.925781 Z M 160.175781 160.175781 " clip-rule="nonzero"/></clipPath></defs><g clip-path="url(#c238804455)"><path fill="#000000" d="M 640.949219 362.765625 C 636.207031 327.738281 621.453125 300.628906 602.664062 266.308594 C 583.871094 231.976562 549.789062 207.515625 525.738281 190.441406 C 501.683594 173.382812 468.3125 165.457031 436.171875 162.289062 C 404.035156 159.121094 364.210938 158.90625 337.457031 165.984375 C 300.230469 175.832031 276.347656 186.035156 251.0625 209.097656 C 225.78125 232.160156 206.96875 255.5625 190.992188 281.796875 C 174.984375 308.019531 162.855469 348.148438 160.941406 367.691406 C 159.011719 387.230469 160.589844 413.988281 167.445312 444.445312 C 174.289062 474.886719 189.746094 503.214844 211.875 537.375 C 234.007812 571.519531 265.089844 593.160156 301.101562 615 C 337.097656 636.824219 412.621094 653.371094 441.253906 649.320312 C 469.890625 645.28125 509.230469 635.425781 549.628906 603.390625 C 590.03125 571.359375 612.507812 518.375 624.796875 485.285156 C 637.09375 452.191406 645.703125 397.796875 640.957031 362.773438 Z M 584.039062 513.078125 C 582.816406 513.078125 567.359375 484.742188 566.484375 482.625 C 565.8125 481.015625 572.804688 468.023438 573.511719 467.855469 C 574.214844 467.671875 590.542969 497.589844 590.367188 498.296875 C 590.191406 499 585.273438 513.078125 584.046875 513.078125 Z M 524.6875 325.621094 C 523.984375 323.691406 523.632812 321.929688 523.808594 321.226562 C 523.984375 320.523438 528.726562 308.554688 527.328125 298.171875 C 525.914062 287.785156 521.359375 271.234375 521.703125 270.714844 C 522.054688 270.179688 540.496094 284.972656 551.035156 308.730469 C 561.574219 332.492188 570.535156 350.621094 573.871094 382.828125 C 577.207031 415.039062 575.628906 438.796875 564.210938 460.453125 C 552.796875 482.109375 544.546875 494.429688 538.21875 500.933594 C 531.902344 507.441406 518.726562 513.609375 517.152344 513.609375 C 515.574219 513.609375 509.957031 485.09375 505.558594 476.109375 C 501.164062 467.140625 493.261719 455.351562 493.4375 453.414062 C 493.4375 453.414062 506.597656 441.628906 511.175781 434.589844 C 515.742188 427.550781 530.671875 402.726562 529.96875 375.269531 C 529.265625 347.796875 525.398438 327.5625 524.6875 325.628906 Z M 597.046875 488.789062 C 595.632812 490.015625 576.722656 457.402344 577.71875 456.40625 C 579.304688 454.828125 584.566406 437.933594 585.625 437.230469 C 586.679688 436.527344 604.066406 468.207031 604.066406 470.316406 C 604.066406 472.429688 598.449219 487.566406 597.039062 488.796875 Z M 620.925781 402.1875 C 618.652344 400.253906 604.074219 367.523438 602.136719 366.8125 C 600.210938 366.109375 595.816406 373.675781 596.855469 376.492188 C 597.898438 379.308594 617.234375 411.15625 617.761719 414.15625 C 618.300781 417.140625 616.355469 432.460938 615.835938 430.175781 C 615.300781 427.878906 600.730469 399.550781 598.976562 399.550781 C 597.21875 399.550781 592.472656 405.71875 592.65625 406.773438 C 592.832031 407.828125 611.800781 443.03125 611.800781 445.316406 C 611.800781 447.613281 609.171875 462.046875 607.59375 459.398438 C 606 456.765625 587.558594 426.140625 587.214844 425.269531 C 586.863281 424.382812 587.566406 382.316406 585.457031 363.484375 C 583.359375 344.660156 576.332031 307.339844 550.164062 276.882812 C 523.992188 246.425781 496.246094 225.480469 456.191406 215.96875 C 416.140625 206.457031 391.914062 207 361.882812 208.410156 C 331.839844 209.816406 288.460938 227.066406 258.777344 270.011719 C 229.085938 312.957031 224.699219 324.921875 218.027344 355.90625 C 211.371094 386.882812 218.738281 432.828125 224.179688 452.710938 C 229.628906 472.605469 243.847656 501.472656 260.007812 516.429688 C 276.171875 531.390625 296.359375 540.71875 312.175781 546.527344 C 327.992188 552.335938 351.867188 555.863281 353.804688 555.152344 C 355.730469 554.449219 354.859375 530.160156 353.804688 527.34375 C 352.746094 524.527344 351.875 523.121094 345.371094 523.472656 C 338.882812 523.824219 327.113281 523.648438 319.382812 520.128906 C 311.65625 516.605469 305.332031 509.566406 300.941406 501.648438 C 296.546875 493.726562 290.226562 484.046875 286.890625 480.351562 C 283.554688 476.648438 276.53125 470.308594 277.402344 469.078125 C 278.289062 467.855469 291.460938 466.613281 300.589844 469.429688 C 309.734375 472.246094 325.183594 482.628906 331.855469 486.855469 C 338.53125 491.078125 347.136719 497.238281 350.121094 497.238281 C 353.105469 497.238281 359.265625 483.160156 361.90625 479.816406 C 364.53125 476.46875 370.683594 465.199219 368.042969 462.75 C 365.414062 460.277344 349.25 459.574219 341.167969 457.46875 C 333.089844 455.351562 318.519531 447.429688 308.148438 433.878906 C 297.789062 420.332031 293.042969 400.085938 293.226562 385.820312 C 293.394531 371.574219 307.269531 344.117188 310.078125 338.660156 C 312.886719 333.203125 316.582031 328.097656 314.824219 326.164062 C 313.0625 324.234375 305.515625 313.675781 303.757812 306.28125 C 302.011719 298.890625 308.332031 280.761719 309.558594 280.058594 C 310.78125 279.355469 319.214844 281.640625 325.550781 282.523438 C 331.863281 283.402344 345.90625 287.265625 351.1875 290.785156 C 356.464844 294.304688 358.378906 296.066406 361.363281 296.066406 C 364.347656 296.066406 387.535156 290.785156 395.449219 289.027344 C 403.351562 287.265625 426.707031 284.457031 435.492188 286.21875 C 444.277344 287.976562 457.453125 295.898438 459.726562 294.484375 C 462.007812 293.082031 467.28125 283.050781 478.523438 280.234375 C 489.769531 277.417969 508.902344 276.179688 511.195312 278.121094 C 513.46875 280.058594 516.804688 300.296875 515.054688 310.683594 C 513.292969 321.066406 510.308594 327.058594 512.070312 329.867188 C 513.828125 332.683594 522.246094 351.691406 517.863281 368.589844 C 513.460938 385.484375 507.148438 409.605469 486.242188 425.613281 C 465.351562 441.628906 458.496094 444.269531 456.03125 445.855469 C 453.582031 447.445312 456.03125 452.375 458.3125 454.308594 C 460.59375 456.246094 476.050781 466.628906 483.601562 489.863281 C 491.15625 513.101562 492.386719 526.824219 492.386719 531.582031 C 492.386719 536.34375 497.84375 538.269531 502.050781 537.398438 C 506.261719 536.511719 511.183594 533.519531 518.046875 528.238281 C 524.886719 522.957031 544.386719 509.054688 545.785156 509.757812 C 547.195312 510.460938 559.308594 536.335938 562.292969 537.214844 C 565.277344 538.09375 567.386719 535.992188 567.726562 534.230469 C 568.085938 532.46875 558.25 513.628906 555.609375 508.519531 C 552.980469 503.421875 551.042969 500.429688 551.746094 498.847656 C 552.449219 497.261719 558.417969 490.046875 559.652344 491.269531 C 560.875 492.511719 573.886719 513.101562 576.15625 516.621094 C 578.4375 520.140625 580.199219 520.847656 577.742188 525.070312 C 575.292969 529.300781 566.675781 540.566406 562.460938 544.261719 C 558.25 547.957031 556.667969 552.527344 554.195312 550.597656 C 551.746094 548.664062 539.449219 526.492188 537.511719 526.132812 C 535.601562 525.773438 530.320312 530.527344 530.855469 532.101562 C 531.390625 533.679688 547.539062 557.632812 547.539062 558.6875 C 547.539062 559.742188 539.449219 570.128906 531.023438 576.640625 C 522.597656 583.152344 517.144531 587.199219 515.566406 584.90625 C 513.976562 582.625 497.46875 544.253906 494.828125 543.734375 C 492.203125 543.199219 486.753906 545.136719 487.636719 548.304688 C 488.515625 551.472656 508.710938 587.023438 508.527344 588.785156 C 508.34375 590.542969 501.867188 594.769531 499.925781 593.007812 C 497.996094 591.25 476.738281 547.414062 474.105469 547.0625 C 471.472656 546.710938 466.914062 547.945312 466.914062 552.167969 C 466.914062 556.390625 494.308594 595.289062 493.085938 597.394531 C 491.84375 599.511719 486.753906 604.265625 484.820312 602.328125 C 482.890625 600.394531 457.769531 550.230469 456.015625 549.878906 C 454.257812 549.527344 447.933594 551.289062 447.933594 552.519531 C 447.933594 553.742188 476.386719 606.546875 476.210938 607.769531 C 476.035156 609.007812 465.144531 614.289062 462.6875 613.050781 C 460.238281 611.824219 435.292969 556.039062 433.359375 554.800781 C 431.429688 553.574219 423.699219 558.855469 424.226562 559.542969 C 424.765625 560.257812 454.96875 612.707031 453.382812 615.34375 C 451.800781 617.984375 444.773438 618.867188 443.550781 617.640625 C 442.3125 616.402344 414.035156 562.367188 412.097656 561.839844 C 410.164062 561.3125 404.203125 564.304688 404.730469 566.585938 C 405.265625 568.878906 434.765625 618.160156 433.886719 618.511719 C 433.003906 618.867188 425.453125 619.21875 424.226562 618.335938 C 423.003906 617.464844 397.523438 577.511719 394.367188 576.632812 C 391.214844 575.753906 387.519531 580.503906 387.519531 581.558594 C 387.519531 582.617188 411.929688 617.816406 410.707031 618.167969 C 409.480469 618.519531 401.402344 617.816406 399.640625 616.761719 C 397.882812 615.703125 381.023438 585.785156 378.75 585.082031 C 376.453125 584.375 371.019531 588.425781 371.710938 590.183594 C 372.421875 591.945312 388.929688 614.480469 386.824219 614.480469 C 384.71875 614.480469 379.09375 614.65625 376.644531 613.257812 C 374.183594 611.839844 362.589844 588.257812 360.476562 587.542969 C 358.371094 586.855469 354.15625 590.015625 353.972656 590.894531 C 353.804688 591.777344 362.941406 608.320312 361.011719 608.496094 C 359.074219 608.671875 352.746094 608.320312 351.171875 607.089844 C 349.585938 605.847656 338.875 587.894531 337.296875 587.367188 C 335.714844 586.832031 330.625 589.664062 331.152344 591.242188 C 331.679688 592.816406 336.769531 600.5625 335.015625 600.730469 C 333.257812 600.914062 297.078125 590.878906 277.585938 577.503906 C 258.089844 564.128906 221.722656 522.941406 210.492188 510.445312 C 199.242188 497.949219 183.617188 460.628906 178.175781 440.390625 C 172.742188 420.148438 171.332031 390.054688 171.515625 374.042969 C 171.6875 358.019531 184.160156 315.960938 191.183594 301.691406 C 198.207031 287.433594 225.257812 248.714844 243.527344 230.234375 C 261.792969 211.753906 291.300781 189.929688 322.382812 180.601562 C 353.46875 171.273438 379.636719 169.335938 394.039062 169.503906 C 428.285156 169.933594 467.273438 174.96875 491.148438 183.066406 C 515.039062 191.160156 559.652344 226.363281 570.71875 239.035156 C 581.78125 251.707031 595.128906 274.410156 603.03125 290.953125 C 610.945312 307.484375 616.730469 321.746094 615.160156 320.515625 C 613.59375 319.285156 603.746094 302.035156 601.816406 302.210938 C 599.902344 302.394531 595.679688 305.386719 596.382812 307.675781 C 597.085938 309.972656 615 337.773438 616.753906 341.292969 C 618.511719 344.8125 620.273438 348.867188 620.441406 349.554688 C 620.617188 350.269531 622.890625 374.378906 622.203125 373.148438 C 621.496094 371.925781 604.464844 340.933594 602.175781 340.058594 C 599.894531 339.179688 598.136719 342.699219 598.65625 343.578125 C 599.191406 344.460938 622.378906 384.0625 622.378906 385.996094 C 622.355469 387.933594 623.234375 404.132812 620.953125 402.1875 Z M 302.328125 326.859375 C 306.015625 330.378906 297.582031 336.011719 291.613281 349.203125 C 285.644531 362.414062 280.195312 388.460938 283.347656 404.125 C 286.515625 419.78125 293.71875 438.253906 310.574219 452.871094 C 327.433594 467.488281 350.269531 468.359375 352.726562 469.589844 C 355.171875 470.816406 348.515625 479.617188 347.109375 481.375 C 345.699219 483.136719 345.882812 482.792969 342.539062 481.03125 C 339.210938 479.269531 320.0625 462.894531 300.046875 458.6875 C 280.019531 454.453125 267.730469 460.445312 263.335938 464.3125 C 258.945312 468.183594 263.875 475.222656 269.484375 479.449219 C 275.097656 483.671875 281.605469 491.589844 289.851562 506.726562 C 298.117188 521.863281 303.199219 525.207031 316.558594 529.785156 C 329.898438 534.375 340.433594 534.542969 342.546875 534.71875 C 344.660156 534.894531 344.140625 541.054688 342.730469 543.34375 C 341.324219 545.640625 335.882812 539.824219 327.808594 537.527344 C 319.71875 535.25 304.621094 533.839844 296.1875 528.558594 C 287.757812 523.28125 260.527344 491.421875 255.441406 477.519531 C 250.34375 463.613281 239.628906 432.292969 239.445312 416.621094 C 239.277344 400.957031 238.046875 374.203125 244.191406 354.140625 C 250.34375 334.074219 263.875 300.804688 284.417969 277.921875 C 304.964844 255.042969 334.648438 237.441406 378.558594 232.699219 C 422.46875 227.9375 461.105469 241.136719 485.171875 249.410156 C 509.230469 257.691406 514.863281 262.800781 514.863281 264.378906 C 514.863281 264.378906 507.652344 265.785156 488.691406 267.019531 C 469.714844 268.257812 457.425781 278.289062 456.71875 279.523438 C 456.015625 280.746094 436.695312 276.355469 416.5 274.777344 C 396.296875 273.1875 368.367188 282.164062 367.324219 282.164062 C 366.285156 282.164062 363.460938 281.980469 355.90625 278.988281 C 348.355469 276.003906 312.351562 268.074219 308.132812 268.425781 C 303.925781 268.777344 294.613281 280.210938 292.675781 297.292969 C 290.75 314.371094 298.644531 323.347656 302.339844 326.867188 Z M 445.300781 177.601562 C 413.851562 173.199219 393.785156 175.257812 392.425781 176.542969 C 389.273438 179.527344 390.328125 185.34375 394.183594 186.035156 C 398.050781 186.746094 416.835938 183.753906 441.605469 186.21875 C 466.371094 188.679688 484.636719 198 488.5 198.1875 C 492.363281 198.363281 494.644531 192.027344 492.539062 189.738281 C 490.429688 187.441406 476.730469 181.992188 445.296875 177.59375 Z M 212.394531 295.347656 C 187.449219 321.210938 182.886719 355.1875 180.792969 366.820312 C 178.695312 378.453125 186.226562 383.347656 189.746094 381.773438 C 193.265625 380.1875 189.570312 370.332031 197.648438 344.460938 C 205.730469 318.585938 216.09375 309.257812 219.429688 302.753906 C 222.757812 296.226562 214.171875 293.511719 212.386719 295.347656 Z M 327.257812 395.5 C 324.449219 388.109375 326.554688 378.4375 328.3125 370.15625 C 330.074219 361.890625 322.160156 362.238281 320.234375 364.171875 C 315.136719 369.277344 313.207031 385.46875 315.136719 395.5 C 317.074219 405.527344 326.035156 420.316406 330.777344 422.605469 C 335.523438 424.902344 340.082031 421.902344 339.042969 416.972656 C 337.972656 412.046875 330.074219 402.894531 327.257812 395.5 Z M 298.636719 476.648438 C 290.910156 481.75 298.453125 486.855469 301.621094 486.855469 C 304.789062 486.855469 307.933594 485.628906 306.535156 480.695312 C 305.128906 475.765625 300.464844 475.429688 298.628906 476.640625 Z M 314.617188 490.550781 C 309 493.71875 314.082031 500.933594 317.777344 501.109375 C 321.472656 501.289062 324.449219 498.472656 324.625 494.773438 C 324.808594 491.078125 317.074219 489.164062 314.625 490.550781 Z M 336.578125 500.40625 C 328.664062 502.167969 331.296875 509.917969 335.164062 510.445312 C 339.027344 510.976562 342.355469 509.566406 343.425781 505.519531 C 344.46875 501.464844 341.542969 499.304688 336.570312 500.414062 Z M 477.609375 297.828125 C 479.371094 298.003906 484.628906 298.882812 487.085938 298.882812 C 489.546875 298.882812 489.378906 313.316406 490.605469 317.707031 C 491.828125 322.117188 498.332031 322.300781 500.78125 319.828125 C 503.246094 317.363281 499.910156 293.777344 498.15625 291.492188 C 496.398438 289.195312 479.441406 292.410156 477.265625 292.890625 C 475.675781 293.234375 475.851562 297.636719 477.609375 297.820312 Z M 524.320312 576.625 C 526.082031 576.976562 530.640625 574.863281 530.992188 572.222656 C 531.339844 569.585938 517.816406 537.558594 516.585938 536.847656 C 515.359375 536.144531 507.277344 538.851562 507.277344 540.367188 C 507.277344 543.351562 522.570312 576.273438 524.320312 576.625 Z M 524.320312 576.625 " fill-opacity="1" fill-rule="nonzero"/></g></svg>