<svg xmlns="http://www.w3.org/2000/svg" xmlns:xlink="http://www.w3.org/1999/xlink" width="1080" zoomAndPan="magnify" viewBox="0 0 810 809.999993" height="1080" preserveAspectRatio="xMidYMid meet" version="1.0"><path fill="#000000" d="M 455.222656 236.070312 C 489.386719 237.941406 523.550781 239.34375 558.183594 236.070312 C 573.628906 234.664062 589.539062 238.878906 605.921875 238.410156 C 620.429688 237.472656 627.449219 247.769531 626.980469 263.679688 C 626.042969 318.90625 627.917969 374.128906 632.128906 428.882812 C 634.9375 467.726562 632.597656 507.039062 633.066406 545.882812 C 633.066406 554.773438 631.191406 563.667969 634.46875 572.089844 C 636.808594 578.640625 635.40625 583.320312 631.191406 588.9375 C 626.042969 595.957031 621.363281 591.746094 615.28125 590.34375 C 597.496094 586.597656 578.777344 589.875 560.992188 590.808594 C 488.453125 595.023438 415.914062 595.023438 342.90625 594.554688 C 320.910156 594.554688 298.445312 595.957031 276.449219 594.085938 C 263.34375 593.148438 251.175781 597.363281 238.539062 598.296875 C 227.777344 599.234375 217.011719 600.167969 206.25 598.296875 C 188.464844 595.023438 184.71875 589.40625 185.65625 569.75 C 185.65625 566.472656 186.125 563.199219 186.125 559.921875 C 191.273438 506.101562 187.0625 452.285156 185.65625 398.464844 C 185.1875 370.382812 185.1875 342.304688 185.1875 314.226562 C 185.1875 307.671875 185.1875 301.121094 183.785156 294.101562 C 180.039062 270.234375 188.933594 256.660156 212.332031 249.171875 C 224.5 245.429688 237.136719 243.089844 249.773438 244.023438 C 270.832031 244.960938 290.957031 240.28125 312.015625 239.34375 C 359.753906 236.539062 407.488281 232.324219 455.222656 236.070312 Z M 579.246094 527.628906 C 580.179688 522.015625 576.90625 519.207031 574.566406 515.929688 C 553.503906 485.511719 529.167969 457.898438 509.980469 426.074219 C 504.832031 417.652344 497.8125 409.695312 491.261719 402.207031 C 485.644531 395.65625 480.496094 394.71875 473.007812 401.738281 C 446.332031 426.074219 421.527344 452.75 397.191406 479.425781 C 386.898438 490.191406 383.152344 491.125 374.261719 479.425781 C 365.367188 467.726562 354.605469 457.429688 344.777344 446.667969 C 335.417969 436.371094 334.011719 435.902344 324.183594 446.199219 C 303.59375 467.257812 283 488.320312 262.875 509.847656 C 259.132812 513.589844 257.261719 519.207031 254.453125 523.886719 C 250.707031 530.4375 253.515625 534.183594 260.535156 534.652344 C 264.75 535.117188 268.492188 535.117188 272.703125 534.652344 C 298.914062 531.84375 325.121094 531.375 350.859375 531.84375 C 414.507812 531.84375 478.15625 526.695312 541.804688 530.4375 C 554.441406 531.375 567.078125 530.4375 579.246094 527.628906 Z M 327.460938 330.136719 C 326.992188 320.308594 321.84375 311.417969 313.421875 303.929688 C 305.933594 296.910156 297.976562 297.375 289.550781 302.523438 C 286.746094 303.929688 283 303.460938 279.722656 304.398438 C 263.34375 309.542969 253.984375 339.964844 265.214844 353.066406 C 273.640625 362.894531 293.765625 370.382812 303.125 367.109375 C 313.886719 363.363281 326.992188 344.175781 327.460938 330.136719 Z M 327.460938 330.136719 " fill-opacity="1" fill-rule="nonzero"/></svg>