<svg xmlns="http://www.w3.org/2000/svg" xmlns:xlink="http://www.w3.org/1999/xlink" width="1080" zoomAndPan="magnify" viewBox="0 0 810 809.999993" height="1080" preserveAspectRatio="xMidYMid meet" version="1.0"><path fill="#fff9a2" d="M 296.699219 221.007812 C 255.925781 221.007812 222.753906 254.183594 222.753906 294.953125 L 222.753906 516.792969 C 222.753906 557.566406 255.925781 590.738281 296.699219 590.738281 L 518.539062 590.738281 C 559.308594 590.738281 592.484375 557.566406 592.484375 516.792969 L 592.484375 294.953125 C 592.484375 254.175781 559.308594 221.007812 518.539062 221.007812 Z M 296.699219 232.386719 L 518.539062 232.386719 C 553.035156 232.386719 581.105469 260.457031 581.105469 294.953125 L 581.105469 516.792969 C 581.105469 551.292969 553.035156 579.363281 518.539062 579.363281 L 296.699219 579.363281 C 262.199219 579.363281 234.128906 551.292969 234.128906 516.792969 L 234.128906 294.953125 C 234.128906 260.457031 262.199219 232.386719 296.699219 232.386719 Z M 312.839844 249.4375 C 278.847656 249.4375 251.195312 277.09375 251.195312 311.085938 L 251.195312 500.652344 C 251.195312 534.644531 278.847656 562.289062 312.839844 562.289062 L 502.394531 562.289062 C 536.386719 562.289062 564.042969 534.644531 564.042969 500.652344 L 564.042969 394.496094 C 564.042969 392.921875 562.769531 391.652344 561.199219 391.652344 C 559.628906 391.652344 558.355469 392.929688 558.355469 394.496094 L 558.355469 500.652344 C 558.355469 531.503906 533.246094 556.609375 502.394531 556.609375 L 312.839844 556.609375 C 281.988281 556.609375 256.882812 531.503906 256.882812 500.652344 L 256.882812 311.085938 C 256.882812 280.234375 281.988281 255.125 312.839844 255.125 L 504.316406 255.125 C 505.886719 255.125 507.160156 253.851562 507.160156 252.28125 C 507.160156 250.710938 505.886719 249.4375 504.316406 249.4375 Z M 404.996094 317.941406 C 382.363281 317.941406 379.601562 318.003906 370.734375 318.453125 C 362.433594 318.808594 355.953125 320.039062 349.746094 322.453125 C 343.578125 324.828125 338.769531 327.953125 334.140625 332.5625 C 329.503906 337.167969 326.355469 341.957031 323.960938 348.082031 C 321.539062 354.246094 320.292969 360.675781 319.929688 369.089844 C 319.546875 377.769531 319.417969 380.695312 319.417969 402.984375 C 319.417969 425.480469 319.492188 428.230469 319.941406 437.035156 C 320.300781 445.289062 321.539062 451.730469 323.960938 457.902344 C 326.355469 464.03125 329.503906 468.8125 334.140625 473.421875 C 338.769531 478.027344 343.578125 481.148438 349.746094 483.53125 C 355.949219 485.9375 362.429688 487.171875 370.910156 487.542969 C 379.644531 487.917969 382.578125 488.042969 404.996094 488.042969 C 427.628906 488.042969 430.398438 487.980469 439.257812 487.53125 C 447.558594 487.171875 454.027344 485.941406 460.234375 483.53125 C 466.398438 481.152344 471.21875 478.027344 475.855469 473.421875 C 480.488281 468.8125 483.625 464.027344 486.019531 457.902344 C 488.441406 451.734375 489.6875 445.300781 490.050781 436.914062 C 490.433594 428.234375 490.574219 425.3125 490.574219 402.996094 C 490.574219 380.496094 490.507812 377.746094 490.050781 368.945312 C 489.695312 360.6875 488.441406 354.253906 486.019531 348.082031 C 483.625 341.949219 480.488281 337.15625 475.855469 332.550781 C 471.21875 327.941406 466.410156 324.835938 460.246094 322.453125 C 454.042969 320.046875 447.5625 318.808594 439.082031 318.441406 C 430.347656 318.066406 427.414062 317.941406 404.996094 317.941406 Z M 405.007812 323.628906 C 427.300781 323.628906 430.214844 323.746094 439.023438 324.128906 C 446.6875 324.464844 452.597656 325.589844 458.199219 327.761719 C 463.597656 329.84375 467.808594 332.5625 471.855469 336.582031 C 475.90625 340.609375 478.648438 344.789062 480.742188 350.148438 L 480.742188 350.160156 C 482.925781 355.722656 484.046875 361.578125 484.375 369.199219 C 484.824219 377.890625 484.898438 380.625 484.898438 402.984375 C 484.890625 425.1875 484.757812 428.078125 484.375 436.792969 C 484.039062 444.398438 482.921875 450.269531 480.730469 455.835938 C 478.636719 461.1875 475.898438 465.371094 471.84375 469.398438 C 467.800781 473.421875 463.582031 476.136719 458.179688 478.21875 C 452.570312 480.394531 446.664062 481.523438 438.992188 481.851562 C 430.238281 482.296875 427.492188 482.351562 404.996094 482.351562 C 382.699219 482.351562 379.785156 482.234375 370.976562 481.851562 C 363.316406 481.519531 357.40625 480.394531 351.804688 478.21875 C 346.398438 476.132812 342.195312 473.421875 338.148438 469.398438 C 334.097656 465.371094 331.359375 461.1875 329.261719 455.824219 C 327.078125 450.253906 325.957031 444.390625 325.628906 436.769531 C 325.183594 428.074219 325.117188 425.34375 325.117188 402.984375 C 325.117188 380.8125 325.246094 377.925781 325.628906 369.191406 C 325.964844 361.585938 327.082031 355.707031 329.273438 350.148438 C 331.367188 344.789062 334.097656 340.605469 338.148438 336.582031 C 342.195312 332.5625 346.410156 329.84375 351.8125 327.761719 C 357.421875 325.589844 363.339844 324.457031 371.011719 324.128906 C 379.773438 323.683594 382.511719 323.628906 405.007812 323.628906 Z M 561.199219 334.773438 C 559.628906 334.773438 558.355469 336.039062 558.355469 337.617188 L 558.355469 348.992188 C 558.355469 350.5625 559.628906 351.835938 561.199219 351.835938 C 562.769531 351.835938 564.042969 350.5625 564.042969 348.992188 L 564.042969 337.617188 C 564.042969 336.046875 562.769531 334.773438 561.199219 334.773438 Z M 450.667969 343.539062 C 443.636719 343.539062 437.914062 349.226562 437.914062 356.226562 C 437.914062 363.222656 443.636719 368.910156 450.667969 368.910156 C 457.699219 368.910156 463.421875 363.222656 463.421875 356.226562 C 463.429688 349.226562 457.703125 343.539062 450.667969 343.539062 Z M 450.667969 349.226562 C 454.566406 349.226562 457.734375 352.363281 457.734375 356.226562 C 457.738281 360.085938 454.570312 363.222656 450.667969 363.222656 C 446.773438 363.222656 443.601562 360.085938 443.601562 356.226562 C 443.601562 352.363281 446.773438 349.226562 450.667969 349.226562 Z M 561.199219 357.523438 C 559.628906 357.523438 558.355469 358.796875 558.355469 360.367188 L 558.355469 383.121094 C 558.355469 384.691406 559.628906 385.964844 561.199219 385.964844 C 562.769531 385.964844 564.042969 384.691406 564.042969 383.121094 L 564.042969 360.367188 C 564.042969 358.792969 562.769531 357.523438 561.199219 357.523438 Z M 404.929688 357.902344 C 379.917969 357.902344 359.570312 378.121094 359.570312 402.984375 C 359.570312 427.847656 379.917969 448.078125 404.929688 448.078125 C 429.941406 448.078125 450.289062 427.847656 450.289062 402.984375 C 450.289062 378.128906 429.941406 357.902344 404.929688 357.902344 Z M 404.929688 363.589844 C 426.804688 363.589844 444.601562 381.257812 444.601562 402.984375 C 444.601562 424.714844 426.804688 442.390625 404.929688 442.390625 C 383.054688 442.390625 365.257812 424.714844 365.257812 402.984375 C 365.257812 381.261719 383.054688 363.589844 404.929688 363.589844 Z M 404.929688 363.589844 " fill-opacity="1" fill-rule="nonzero"/></svg>