<svg xmlns="http://www.w3.org/2000/svg" xmlns:xlink="http://www.w3.org/1999/xlink" width="1080" zoomAndPan="magnify" viewBox="0 0 810 809.999993" height="1080" preserveAspectRatio="xMidYMid meet" version="1.0"><path fill="#000000" d="M 296.601562 220.953125 C 255.851562 220.953125 222.695312 254.109375 222.695312 294.859375 L 222.695312 516.574219 C 222.695312 557.324219 255.851562 590.476562 296.601562 590.476562 L 518.316406 590.476562 C 559.066406 590.476562 592.222656 557.324219 592.222656 516.574219 L 592.222656 294.859375 C 592.222656 254.101562 559.066406 220.953125 518.316406 220.953125 Z M 296.601562 232.324219 L 518.316406 232.324219 C 552.796875 232.324219 580.851562 260.378906 580.851562 294.859375 L 580.851562 516.574219 C 580.851562 551.050781 552.796875 579.109375 518.316406 579.109375 L 296.601562 579.109375 C 262.121094 579.109375 234.066406 551.050781 234.066406 516.574219 L 234.066406 294.859375 C 234.066406 260.378906 262.121094 232.324219 296.601562 232.324219 Z M 312.734375 249.367188 C 278.761719 249.367188 251.121094 277.007812 251.121094 310.980469 L 251.121094 500.441406 C 251.121094 534.414062 278.761719 562.042969 312.734375 562.042969 L 502.183594 562.042969 C 536.15625 562.042969 563.796875 534.414062 563.796875 500.441406 L 563.796875 394.34375 C 563.796875 392.769531 562.523438 391.503906 560.953125 391.503906 C 559.382812 391.503906 558.109375 392.777344 558.109375 394.34375 L 558.109375 500.441406 C 558.109375 531.273438 533.019531 556.367188 502.183594 556.367188 L 312.734375 556.367188 C 281.898438 556.367188 256.804688 531.273438 256.804688 500.441406 L 256.804688 310.980469 C 256.804688 280.144531 281.898438 255.050781 312.734375 255.050781 L 504.105469 255.050781 C 505.671875 255.050781 506.945312 253.777344 506.945312 252.210938 C 506.945312 250.640625 505.671875 249.367188 504.105469 249.367188 Z M 404.839844 317.832031 C 382.21875 317.832031 379.457031 317.894531 370.59375 318.34375 C 362.300781 318.699219 355.824219 319.929688 349.621094 322.339844 C 343.453125 324.714844 338.648438 327.839844 334.019531 332.441406 C 329.386719 337.046875 326.242188 341.832031 323.847656 347.953125 C 321.425781 354.117188 320.183594 360.542969 319.820312 368.953125 C 319.4375 377.628906 319.308594 380.550781 319.308594 402.828125 C 319.308594 425.3125 319.378906 428.058594 319.828125 436.859375 C 320.1875 445.109375 321.425781 451.546875 323.847656 457.714844 C 326.242188 463.839844 329.386719 468.621094 334.019531 473.226562 C 338.648438 477.828125 343.453125 480.945312 349.621094 483.328125 C 355.816406 485.734375 362.296875 486.96875 370.773438 487.335938 C 379.5 487.710938 382.433594 487.835938 404.839844 487.835938 C 427.457031 487.835938 430.222656 487.773438 439.082031 487.328125 C 447.375 486.96875 453.84375 485.738281 460.042969 483.328125 C 466.207031 480.953125 471.023438 477.828125 475.65625 473.226562 C 480.289062 468.621094 483.421875 463.835938 485.816406 457.714844 C 488.238281 451.550781 489.484375 445.117188 489.847656 436.738281 C 490.226562 428.0625 490.367188 425.140625 490.367188 402.839844 C 490.367188 380.351562 490.300781 377.601562 489.847656 368.808594 C 489.488281 360.550781 488.238281 354.125 485.816406 347.953125 C 483.421875 341.828125 480.289062 337.035156 475.65625 332.433594 C 471.023438 327.828125 466.21875 324.722656 460.054688 322.339844 C 453.859375 319.933594 447.378906 318.699219 438.902344 318.332031 C 430.175781 317.957031 427.242188 317.832031 404.839844 317.832031 Z M 404.847656 323.515625 C 427.128906 323.515625 430.042969 323.636719 438.847656 324.015625 C 446.507812 324.351562 452.414062 325.476562 458.011719 327.648438 C 463.40625 329.726562 467.617188 332.445312 471.660156 336.460938 C 475.707031 340.488281 478.449219 344.664062 480.542969 350.019531 L 480.542969 350.03125 C 482.726562 355.589844 483.84375 361.445312 484.171875 369.0625 C 484.621094 377.75 484.695312 380.480469 484.695312 402.828125 C 484.6875 425.015625 484.554688 427.90625 484.171875 436.617188 C 483.835938 444.21875 482.71875 450.089844 480.53125 455.648438 C 478.4375 460.996094 475.703125 465.179688 471.648438 469.207031 C 467.605469 473.222656 463.390625 475.941406 457.992188 478.019531 C 452.386719 480.191406 446.484375 481.324219 438.816406 481.652344 C 430.066406 482.097656 427.324219 482.152344 404.839844 482.152344 C 382.554688 482.152344 379.640625 482.035156 370.839844 481.652344 C 363.179688 481.316406 357.273438 480.191406 351.675781 478.019531 C 346.273438 475.933594 342.070312 473.222656 338.027344 469.207031 C 333.980469 465.179688 331.242188 460.996094 329.144531 455.636719 C 326.960938 450.070312 325.84375 444.210938 325.515625 436.59375 C 325.070312 427.902344 325.003906 425.175781 325.003906 402.828125 C 325.003906 380.667969 325.132812 377.785156 325.515625 369.050781 C 325.851562 361.449219 326.96875 355.574219 329.15625 350.019531 C 331.25 344.664062 333.980469 340.480469 338.027344 336.460938 C 342.070312 332.445312 346.285156 329.726562 351.6875 327.648438 C 357.292969 325.476562 363.203125 324.34375 370.871094 324.015625 C 379.628906 323.574219 382.363281 323.515625 404.847656 323.515625 Z M 560.953125 334.652344 C 559.382812 334.652344 558.109375 335.921875 558.109375 337.496094 L 558.109375 348.867188 C 558.109375 350.433594 559.382812 351.707031 560.953125 351.707031 C 562.523438 351.707031 563.796875 350.433594 563.796875 348.867188 L 563.796875 337.496094 C 563.796875 335.925781 562.523438 334.652344 560.953125 334.652344 Z M 450.484375 343.414062 C 443.457031 343.414062 437.738281 349.101562 437.738281 356.09375 C 437.738281 363.085938 443.457031 368.773438 450.484375 368.773438 C 457.511719 368.773438 463.230469 363.085938 463.230469 356.09375 C 463.238281 349.101562 457.515625 343.414062 450.484375 343.414062 Z M 450.484375 349.097656 C 454.378906 349.097656 457.546875 352.234375 457.546875 356.09375 C 457.550781 359.953125 454.382812 363.089844 450.484375 363.089844 C 446.589844 363.089844 443.421875 359.953125 443.421875 356.09375 C 443.421875 352.234375 446.589844 349.097656 450.484375 349.097656 Z M 560.953125 357.394531 C 559.382812 357.394531 558.109375 358.667969 558.109375 360.234375 L 558.109375 382.976562 C 558.109375 384.542969 559.382812 385.816406 560.953125 385.816406 C 562.523438 385.816406 563.796875 384.542969 563.796875 382.976562 L 563.796875 360.234375 C 563.796875 358.660156 562.523438 357.394531 560.953125 357.394531 Z M 404.773438 357.769531 C 379.773438 357.769531 359.4375 377.980469 359.4375 402.828125 C 359.4375 427.675781 379.773438 447.898438 404.773438 447.898438 C 429.769531 447.898438 450.105469 427.675781 450.105469 402.828125 C 450.105469 377.984375 429.769531 357.769531 404.773438 357.769531 Z M 404.773438 363.457031 C 426.636719 363.457031 444.421875 381.113281 444.421875 402.828125 C 444.421875 424.546875 426.636719 442.210938 404.773438 442.210938 C 382.90625 442.210938 365.121094 424.546875 365.121094 402.828125 C 365.121094 381.117188 382.90625 363.457031 404.773438 363.457031 Z M 404.773438 363.457031 " fill-opacity="1" fill-rule="nonzero"/></svg>