<svg xmlns="http://www.w3.org/2000/svg" xmlns:xlink="http://www.w3.org/1999/xlink" width="1080" zoomAndPan="magnify" viewBox="0 0 810 809.999993" height="1080" preserveAspectRatio="xMidYMid meet" version="1.0"><path fill="#fff9a2" d="M 289.5625 215.402344 C 247.550781 215.402344 213.367188 249.585938 213.367188 291.601562 L 213.367188 520.195312 C 213.367188 562.210938 247.550781 596.394531 289.5625 596.394531 L 518.15625 596.394531 C 560.171875 596.394531 594.355469 562.210938 594.355469 520.195312 L 594.355469 291.601562 C 594.355469 249.582031 560.175781 215.402344 518.15625 215.402344 Z M 289.5625 227.128906 L 518.15625 227.128906 C 553.707031 227.128906 582.632812 256.054688 582.632812 291.601562 L 582.632812 520.195312 C 582.632812 555.746094 553.707031 584.671875 518.15625 584.671875 L 289.5625 584.671875 C 254.015625 584.671875 225.089844 555.746094 225.089844 520.195312 L 225.089844 291.601562 C 225.089844 256.054688 254.015625 227.128906 289.5625 227.128906 Z M 306.199219 244.699219 C 271.171875 244.699219 242.671875 273.195312 242.671875 308.222656 L 242.671875 503.5625 C 242.671875 538.589844 271.171875 567.074219 306.199219 567.074219 L 501.535156 567.074219 C 536.5625 567.074219 565.046875 538.589844 565.046875 503.5625 L 565.046875 394.175781 C 565.046875 392.550781 563.734375 391.246094 562.117188 391.246094 C 560.5 391.246094 559.1875 392.558594 559.1875 394.175781 L 559.1875 503.5625 C 559.1875 535.351562 533.328125 561.226562 501.535156 561.226562 L 306.199219 561.226562 C 274.40625 561.226562 248.535156 535.351562 248.535156 503.5625 L 248.535156 308.222656 C 248.535156 276.433594 274.40625 250.5625 306.199219 250.5625 L 503.503906 250.5625 C 505.121094 250.5625 506.433594 249.246094 506.433594 247.628906 C 506.433594 246.011719 505.121094 244.699219 503.503906 244.699219 Z M 339.488281 321.148438 C 327.257812 321.148438 318.378906 329.722656 318.378906 341.539062 C 318.378906 353.355469 327.074219 361.925781 339.269531 361.925781 C 351.503906 361.925781 360.394531 353.355469 360.394531 341.46875 C 360.101562 329.507812 351.492188 321.148438 339.488281 321.148438 Z M 339.488281 327.011719 C 348.402344 327.011719 354.316406 332.75 354.53125 341.550781 C 354.539062 350.101562 348.265625 356.078125 339.078125 356.078125 C 330.347656 356.078125 324.238281 350.101562 324.238281 341.550781 C 324.238281 332.992188 330.507812 327.011719 339.488281 327.011719 Z M 562.117188 332.632812 C 560.5 332.632812 559.1875 333.9375 559.1875 335.5625 L 559.1875 347.285156 C 559.1875 348.902344 560.5 350.214844 562.117188 350.214844 C 563.734375 350.214844 565.046875 348.902344 565.046875 347.285156 L 565.046875 335.5625 C 565.046875 333.945312 563.734375 332.632812 562.117188 332.632812 Z M 562.117188 356.078125 C 560.5 356.078125 559.1875 357.390625 559.1875 359.007812 L 559.1875 382.453125 C 559.1875 384.070312 560.5 385.382812 562.117188 385.382812 C 563.734375 385.382812 565.046875 384.070312 565.046875 382.453125 L 565.046875 359.007812 C 565.046875 357.382812 563.734375 356.078125 562.117188 356.078125 Z M 449.402344 372.941406 C 436.507812 373.015625 426.050781 376.867188 418.503906 384.960938 L 418.503906 376.582031 C 418.503906 374.960938 417.191406 373.648438 415.570312 373.648438 L 379.96875 373.648438 C 379.164062 373.648438 378.394531 373.972656 377.839844 374.554688 C 377.289062 375.132812 377.003906 375.921875 377.039062 376.71875 C 377.511719 386.96875 377.039062 486.925781 377.039062 487.933594 C 377.03125 488.71875 377.339844 489.46875 377.886719 490.019531 C 378.4375 490.570312 379.183594 490.878906 379.957031 490.878906 L 415.582031 490.878906 C 417.203125 490.878906 418.515625 489.5625 418.515625 487.945312 L 418.515625 425.738281 C 418.515625 422.152344 418.859375 419.488281 419.542969 417.804688 C 420.96875 414.289062 425.402344 406.105469 435.859375 406.105469 C 451.496094 406.105469 453.191406 421.972656 453.191406 428.816406 L 453.671875 487.96875 C 453.683594 489.582031 454.996094 490.878906 456.601562 490.878906 L 491.769531 490.878906 C 493.386719 490.878906 494.699219 489.5625 494.699219 487.945312 L 494.699219 428.289062 C 494.699219 408.773438 489.886719 394.066406 480.390625 384.582031 C 472.652344 376.855469 462.230469 372.941406 449.402344 372.941406 Z M 321.800781 373.660156 C 320.183594 373.660156 318.871094 374.972656 318.871094 376.59375 L 318.871094 487.957031 C 318.871094 489.574219 320.183594 490.886719 321.800781 490.886719 L 356.96875 490.886719 C 358.585938 490.886719 359.902344 489.574219 359.902344 487.957031 L 359.902344 376.59375 C 359.902344 374.972656 358.585938 373.660156 356.96875 373.660156 Z M 449.308594 378.8125 L 449.402344 378.8125 C 460.625 378.8125 469.664062 382.15625 476.257812 388.738281 C 484.609375 397.078125 488.851562 410.382812 488.851562 428.289062 L 488.851562 485.027344 L 459.519531 485.027344 L 459.050781 428.804688 C 459.050781 411.191406 450.171875 400.242188 435.871094 400.242188 C 426.140625 400.242188 418.003906 405.984375 414.117188 415.59375 C 413.132812 418.011719 412.652344 421.324219 412.652344 425.738281 L 412.652344 485.015625 L 382.910156 485.015625 C 382.988281 469.214844 383.277344 397.265625 382.96875 379.523438 L 412.652344 379.523438 L 412.652344 393.019531 C 412.324219 393.847656 412.460938 394.804688 412.90625 395.605469 C 413.425781 396.527344 414.523438 397.105469 415.582031 397.105469 C 416.804688 397.105469 417.847656 396.132812 418.285156 394.964844 C 422.5625 387.933594 430.464844 378.8125 449.308594 378.8125 Z M 324.734375 379.523438 L 354.039062 379.523438 L 354.039062 485.027344 L 324.734375 485.027344 Z M 324.734375 379.523438 " fill-opacity="1" fill-rule="nonzero"/></svg>