<svg xmlns="http://www.w3.org/2000/svg" xmlns:xlink="http://www.w3.org/1999/xlink" width="1080" zoomAndPan="magnify" viewBox="0 0 810 809.999993" height="1080" preserveAspectRatio="xMidYMid meet" version="1.0"><path fill="#000000" d="M 289.675781 215.46875 C 247.632812 215.46875 213.429688 249.671875 213.429688 291.714844 L 213.429688 520.449219 C 213.429688 562.488281 247.632812 596.691406 289.675781 596.691406 L 518.410156 596.691406 C 560.449219 596.691406 594.65625 562.488281 594.65625 520.449219 L 594.65625 291.714844 C 594.65625 249.667969 560.457031 215.46875 518.410156 215.46875 Z M 289.675781 227.199219 L 518.410156 227.199219 C 553.980469 227.199219 582.925781 256.140625 582.925781 291.714844 L 582.925781 520.449219 C 582.925781 556.019531 553.980469 584.964844 518.410156 584.964844 L 289.675781 584.964844 C 254.101562 584.964844 225.160156 556.019531 225.160156 520.449219 L 225.160156 291.714844 C 225.160156 256.140625 254.101562 227.199219 289.675781 227.199219 Z M 306.320312 244.78125 C 271.269531 244.78125 242.753906 273.296875 242.753906 308.347656 L 242.753906 503.804688 C 242.753906 538.851562 271.269531 567.355469 306.320312 567.355469 L 501.777344 567.355469 C 536.824219 567.355469 565.328125 538.851562 565.328125 503.804688 L 565.328125 394.351562 C 565.328125 392.726562 564.015625 391.417969 562.398438 391.417969 C 560.777344 391.417969 559.464844 392.730469 559.464844 394.351562 L 559.464844 503.804688 C 559.464844 535.617188 533.589844 561.503906 501.777344 561.503906 L 306.320312 561.503906 C 274.507812 561.503906 248.621094 535.617188 248.621094 503.804688 L 248.621094 308.347656 C 248.621094 276.535156 274.507812 250.648438 306.320312 250.648438 L 503.746094 250.648438 C 505.367188 250.648438 506.679688 249.332031 506.679688 247.714844 C 506.679688 246.09375 505.367188 244.78125 503.746094 244.78125 Z M 339.628906 321.277344 C 327.390625 321.277344 318.507812 329.855469 318.507812 341.679688 C 318.507812 353.503906 327.207031 362.082031 339.414062 362.082031 C 351.652344 362.082031 360.546875 353.507812 360.546875 341.613281 C 360.253906 329.640625 351.640625 321.277344 339.628906 321.277344 Z M 339.628906 327.144531 C 348.550781 327.144531 354.464844 332.886719 354.683594 341.691406 C 354.6875 350.25 348.414062 356.226562 339.21875 356.226562 C 330.484375 356.226562 324.371094 350.25 324.371094 341.691406 C 324.371094 333.128906 330.644531 327.144531 339.628906 327.144531 Z M 562.398438 332.769531 C 560.777344 332.769531 559.464844 334.078125 559.464844 335.699219 L 559.464844 347.429688 C 559.464844 349.050781 560.777344 350.363281 562.398438 350.363281 C 564.015625 350.363281 565.328125 349.050781 565.328125 347.429688 L 565.328125 335.699219 C 565.328125 334.082031 564.015625 332.769531 562.398438 332.769531 Z M 562.398438 356.226562 C 560.777344 356.226562 559.464844 357.542969 559.464844 359.160156 L 559.464844 382.621094 C 559.464844 384.238281 560.777344 385.554688 562.398438 385.554688 C 564.015625 385.554688 565.328125 384.238281 565.328125 382.621094 L 565.328125 359.160156 C 565.328125 357.535156 564.015625 356.226562 562.398438 356.226562 Z M 449.609375 373.101562 C 436.707031 373.179688 426.246094 377.03125 418.691406 385.128906 L 418.691406 376.746094 C 418.691406 375.125 417.378906 373.8125 415.761719 373.8125 L 380.136719 373.8125 C 379.332031 373.8125 378.5625 374.136719 378.003906 374.71875 C 377.453125 375.296875 377.167969 376.085938 377.203125 376.882812 C 377.675781 387.140625 377.203125 487.160156 377.203125 488.167969 C 377.195312 488.953125 377.503906 489.703125 378.050781 490.253906 C 378.601562 490.804688 379.347656 491.113281 380.125 491.113281 L 415.773438 491.113281 C 417.390625 491.113281 418.703125 489.796875 418.703125 488.179688 L 418.703125 425.933594 C 418.703125 422.34375 419.050781 419.675781 419.734375 417.992188 C 421.160156 414.476562 425.59375 406.285156 436.058594 406.285156 C 451.707031 406.285156 453.402344 422.164062 453.402344 429.015625 L 453.882812 488.203125 C 453.894531 489.816406 455.207031 491.113281 456.816406 491.113281 L 492.003906 491.113281 C 493.625 491.113281 494.9375 489.796875 494.9375 488.179688 L 494.9375 428.488281 C 494.9375 408.957031 490.121094 394.242188 480.617188 384.75 C 472.878906 377.019531 462.449219 373.101562 449.609375 373.101562 Z M 321.933594 373.824219 C 320.3125 373.824219 319 375.136719 319 376.753906 L 319 488.191406 C 319 489.808594 320.3125 491.125 321.933594 491.125 L 357.121094 491.125 C 358.742188 491.125 360.054688 489.808594 360.054688 488.191406 L 360.054688 376.753906 C 360.054688 375.136719 358.742188 373.824219 357.121094 373.824219 Z M 449.519531 378.976562 L 449.609375 378.976562 C 460.839844 378.976562 469.886719 382.324219 476.484375 388.910156 C 484.839844 397.253906 489.085938 410.570312 489.085938 428.488281 L 489.085938 485.257812 L 459.738281 485.257812 L 459.265625 429.003906 C 459.265625 411.378906 450.378906 400.421875 436.070312 400.421875 C 426.335938 400.421875 418.195312 406.164062 414.304688 415.785156 C 413.320312 418.199219 412.839844 421.515625 412.839844 425.933594 L 412.839844 485.246094 L 383.078125 485.246094 C 383.15625 469.433594 383.445312 397.441406 383.136719 379.6875 L 412.839844 379.6875 L 412.839844 393.195312 C 412.511719 394.019531 412.644531 394.980469 413.089844 395.78125 C 413.613281 396.703125 414.710938 397.285156 415.773438 397.285156 C 416.992188 397.285156 418.035156 396.308594 418.476562 395.140625 C 422.757812 388.101562 430.664062 378.976562 449.519531 378.976562 Z M 324.863281 379.6875 L 354.1875 379.6875 L 354.1875 485.257812 L 324.863281 485.257812 Z M 324.863281 379.6875 " fill-opacity="1" fill-rule="nonzero"/></svg>