<svg xmlns="http://www.w3.org/2000/svg" data-name="Layer 1" viewBox="0 0 1000 1250" x="0px" y="0px"><title>5071-Judo</title><path d="M650.11,567.93H565.24a16,16,0,0,1,0-32h84.87a16,16,0,0,1,0,32Z"/><path d="M434.75,567.93H349.89a16,16,0,0,1,0-32h84.86a16,16,0,0,1,0,32Z"/><path d="M508.78,539.73a16,16,0,0,1-15.66-12.82l-37.2-183.16-78.68-171a16,16,0,0,1,29.07-13.37l79.45,172.71a16,16,0,0,1,1.15,3.5l37.57,185a16,16,0,0,1-15.7,19.19Z"/><path d="M561.34,549a16,16,0,0,1-15.75-13.2L507.22,346.28,422.13,152.83a16,16,0,0,1,29.29-12.89L537.2,335a16.37,16.37,0,0,1,1,3.27L577,529.83a15.46,15.46,0,0,1,.32,3.18A16,16,0,0,1,561.34,549Z"/><path d="M496.13,297.36a16,16,0,0,1-14.53-22.69l62.09-135a16,16,0,1,1,29.07,13.37L510.67,288A16,16,0,0,1,496.13,297.36Z"/><path d="M522.55,357.42A16,16,0,0,1,508,334.73L590.1,156.28a16,16,0,1,1,29.07,13.37L537.09,348.1A16,16,0,0,1,522.55,357.42Z"/><path d="M666.71,869.62H333.29a63.5,63.5,0,0,1-60.69-82.16l39.88-129.61a13.84,13.84,0,0,1,.52-1.45,270.25,270.25,0,0,0,20.68-93.58A39.51,39.51,0,0,1,322.52,553a41.55,41.55,0,0,1-5.84-10.17L245.1,666.89a16,16,0,0,1-21.91,5.83L92,596.32a16,16,0,0,1-5.8-21.83L276.63,244.73a14.88,14.88,0,0,1,1-1.59h0l0,0h0l0,0v0h0v0l0,0h0v0h0v0h0l0,0h0l0,0h0a15.91,15.91,0,0,1,2.46-2.53l124-106a16,16,0,0,1,10.4-3.84H585.24a16,16,0,0,1,10.4,3.84l124,106.05a15.91,15.91,0,0,1,2.46,2.53h0l0,0h0l0,0h0v0h0v0h0l0,0v0h0v0l0,0h0l0,0h0a14.88,14.88,0,0,1,1,1.59L913.85,574.49a16,16,0,0,1-5.8,21.83l-131.24,76.4a16,16,0,0,1-21.91-5.83L683.32,542.81A41.84,41.84,0,0,1,677.49,553a39.68,39.68,0,0,1-11.17,9.84A270.25,270.25,0,0,0,687,656.4a13.84,13.84,0,0,1,.52,1.45L727.4,787.46a63.5,63.5,0,0,1-60.69,82.16ZM342.84,668,303.19,796.87a31.49,31.49,0,0,0,30.1,40.75H666.71a31.49,31.49,0,0,0,30.1-40.75h0L657.16,668a302,302,0,0,1-23-116.05,16,16,0,0,1,13.36-15.78,7.07,7.07,0,0,0,4.8-2.88,11.14,11.14,0,0,0,2.14-5.56l4.05-34q0-.37.09-.75l33.79-234-113-96.65H420.67L307.66,259l33.79,234q.06.38.09.75l4,33.94a11.21,11.21,0,0,0,2.14,5.58,7.09,7.09,0,0,0,4.8,2.87,16,16,0,0,1,13.36,15.78A302,302,0,0,1,342.84,668ZM691,492.11,774.6,637l103.57-60.3-159.5-276.1ZM121.83,576.68,225.4,637,309,492.11,281.33,300.58Z"/><path d="M543.56,647.55H456.44a37.72,37.72,0,0,1-37.68-37.68V545.41a37.73,37.73,0,0,1,37.68-37.69h87.12a37.73,37.73,0,0,1,37.68,37.69v64.46A37.72,37.72,0,0,1,543.56,647.55ZM456.44,539.72a5.69,5.69,0,0,0-5.68,5.69v64.46a5.69,5.69,0,0,0,5.68,5.68h87.12a5.69,5.69,0,0,0,5.68-5.68V545.41a5.69,5.69,0,0,0-5.68-5.69Z"/><path d="M450.1,772.62a41.1,41.1,0,0,1-39.69-51.75l25.23-94.13a16,16,0,0,1,30.9,8.28l-25.23,94.13A9.11,9.11,0,0,0,458.86,734l25.58-106.21a16,16,0,0,1,31.12,7.49L489.92,741.76c0,.13-.07.26-.1.39A41.19,41.19,0,0,1,450.1,772.62Z"/><path d="M549.91,772.64a41.2,41.2,0,0,1-39.74-30.48c0-.13-.06-.26-.1-.39L484.44,635.3a16,16,0,0,1,31.12-7.49L541.13,734a9.11,9.11,0,0,0,17.55-4.87L533.46,635a16,16,0,0,1,30.91-8.28l25.22,94.14a41.1,41.1,0,0,1-39.68,51.76Z"/><path d="M656,625.9H565.25a16,16,0,0,1,0-32H656a16,16,0,0,1,0,32Z"/><path d="M434.75,625.9H344a16,16,0,0,1,0-32h90.76a16,16,0,1,1,0,32Z"/><text x="0" y="1015" fill="#000000" font-size="5px" font-weight="bold" font-family="'Helvetica Neue', Helvetica, Arial-Unicode, Arial, Sans-serif">Created by IYIKON</text><text x="0" y="1020" fill="#000000" font-size="5px" font-weight="bold" font-family="'Helvetica Neue', Helvetica, Arial-Unicode, Arial, Sans-serif">from the Noun Project</text></svg>