<?xml version="1.0" encoding="iso-8859-1"?>
<!-- Uploaded to: SVG Repo, www.svgrepo.com, Generator: SVG Repo Mixer Tools -->
<!DOCTYPE svg PUBLIC "-//W3C//DTD SVG 1.1//EN" "http://www.w3.org/Graphics/SVG/1.1/DTD/svg11.dtd">
<svg fill="#000000" version="1.1" id="Capa_1" xmlns="http://www.w3.org/2000/svg" xmlns:xlink="http://www.w3.org/1999/xlink" 
	 width="800px" height="800px" viewBox="0 0 573.627 573.628"
	 xml:space="preserve">
<g>
	<path d="M529.86,371.254c-0.918-0.611-2.448-0.611-3.673,0c-49.571,29.376-106.794,54.469-161.262,22.339
		c-43.758-25.704-62.118-82.62-66.401-130.05c-4.591-47.124,6.119-98.226,35.802-135.864
		c40.086-50.796,101.897-43.146,156.978-27.54c5.202,1.53,9.181-4.284,8.263-8.568c2.142-0.612,3.978-3.06,2.754-5.508
		C429.185-36.643,287.201-12.469,187.139,61.277C83.711,137.471,7.211,270.581,43.319,399.406
		c66.096,237.762,469.404,234.702,496.026-24.786C539.958,369.418,532.919,367.889,529.86,371.254z M308.622,561.28
		c-110.772,6.426-216.343-59.67-251.227-165.852c-37.638-114.75,36.414-232.254,119.34-306
		C274.961,2.525,402.87-17.059,492.833,86.981c-127.908-52.02-217.566,51.714-209.61,176.562
		c3.366,52.938,25.093,106.793,68.544,139.229c54.162,40.086,125.767,13.158,174.42-22.032
		C497.423,487.229,422.148,554.854,308.622,561.28z"/>
</g>
</svg>