<svg xmlns="http://www.w3.org/2000/svg" xmlns:xlink="http://www.w3.org/1999/xlink" version="1.1" x="0px" y="0px" viewBox="0 0 100 125" style="enable-background:new 0 0 100 100;" xml:space="preserve"><g><path d="M81.8,20.2c-4.1-2.9-12.3-1-16.9-1c-6.8,0-13.5,0-20.3,0.5c-5.8,0.4-13.1-0.7-18.6,1.1c0,0-0.1,0-0.1,0   c-3.7-0.2-7.6-0.5-8.3,3.8c-0.4,2.4,0,5-0.2,7.4c-0.2,3.1-0.8,6.1-1,9.2c-0.7,8.7-1,17.5,0.6,26.2c0.1,0.3,0.4,0.6,0.7,0.7   c2.5,0.5,4.9,0.2,7.4,0.1c3.8-0.1,7.5,0.3,11.2,0.5c1.7,0.1,3.4,0.2,5.1,0.2c-1,2.1-1.6,4.4-1.8,6.7c-1,0.1-1.9,0.3-2.5,0.8   c-0.6,0.4-0.5,1.1-0.1,1.5c-0.2,3.7,3,3,7,2.8c4.4-0.3,8.7-0.5,13.1-0.7c1.4-0.1,4,0.3,5-1c0.7-0.9,0.5-2.9-0.3-3.7   c-0.6-0.6-1.6-0.7-2.7-0.6c0,0,0,0,0-0.1c-0.3-0.7-0.4-1.4-0.6-2.1c-0.5-1.3-1.3-2.4-1.7-3.7c0.3,0,0.6,0,0.9,0   c6.9,0,13.6,0.9,20.5-0.1c4-0.6,3.8-1.8,4.3-5.7c1.2-10.6,1.6-21,1.6-31.6C83.9,28.1,84.8,22.4,81.8,20.2z M78,52.7   c-0.9,2.3-5.4,1.2-7.9,1.2c-4.1,0-8.1,0.3-12.2,0.4c-7.8,0.1-15.5-0.5-23.3,0.1c-3.4,0.2-6.7,0.2-10.1,0.3c-2.2,0-2.2,0.3-2.5-1.9   c-0.2-1.4-0.2-2.7-0.2-4.1c-0.1-7.4-0.8-15.6,0.1-23c2.4-0.3,5.1-0.2,7.3-0.2c4,0,8.1-0.1,12.1,0.2c7.6,0.6,15.1,0.5,22.7,0.5   c3.6,0,7-0.1,10.5-0.7c2.6-0.4,3.7-1.2,4.2,1.7c0.3,1.5-0.4,3.3-0.4,4.8c-0.1,3.4-0.2,6.9-0.3,10.3C77.9,45.2,79,50.1,78,52.7z    M59.3,78.2c-1.8,0.7-4.5,0.2-6.4,0.2c-2.3,0-4.6,0.2-6.9,0.4c-1.6,0.2-5.3,1.1-6.9,0.3c-0.5-0.2-0.8-0.6-1.1-1.1c0,0,0,0,0.1,0   c1-0.7,4.4-0.4,5.5-0.5c2.2-0.2,4.4-0.4,6.6-0.4c1.9,0,3.5-0.2,5.4-0.4C57.1,76.5,63.1,76.8,59.3,78.2z M56.4,71.9   c0.4,0.7,0.5,1.2,0.7,1.9c0.1,0.3,0.2,0.6,0.3,0.9c-0.7,0.1-1.4,0.2-1.9,0.2c-3.5,0.2-7.1,0.1-10.7,0.5c-0.9,0.1-2.4,0-3.9,0.1   c0.2-2.3,0.9-4.4,1.7-6.5c4.2,0,8.4-0.2,12.5-0.2C55.4,69.9,55.9,70.9,56.4,71.9z M70.4,67.2c-4,0.1-7.9-0.5-11.9-0.5   c-8.1,0-16.3,0.3-24.4-0.4c-3.4-0.3-7-0.2-10.4-0.1c-1.6,0.1-4,0.6-5.1-1.1c-0.4-0.7-0.6-2.8-0.6-4.5c5.9,0.4,12-0.1,17.9-0.1   c5.9,0,11.7,0.6,17.5,0.7c9.1,0.1,18.2-0.3,27.2-0.3c0,1.7-0.1,3.5-0.7,4.5C78.8,67.2,72.4,67.2,70.4,67.2z M81.9,29.5   c0,7.3,0,14.6-0.5,21.8c-0.1,2.3-0.5,4.6-0.8,6.9c0,0.3,0,0.8,0,1.2c-9,0-18.2,0.7-27.2,0.3c-11.9-0.4-23.6-0.9-35.5-0.1   c0-0.2,0-0.5,0-0.6c-0.3-5.1,0.2-10.2,0.5-15.2c0.2-3.3,0.5-6.6,0.8-10c0.2-2,0.2-3.9,0.1-5.9c0-0.6,0-1.1,0.1-1.6   c0.1-0.1,0.2-0.2,0.2-0.3c0.3-0.1,0.5-0.2,0.8-0.2c-1.7,9.5-0.2,20,0,29.5c0,0.5,0.4,0.8,0.9,0.9c6.8,0.9,13.8-0.7,20.6-0.6   c8.2,0.1,16.3,0.5,24.5,0c3.5-0.2,7.2,0.5,10.6,0c1.1-0.2,1.8,0.1,2.7-0.9c1-1.3,0.2-6.3,0.2-7.8c0-3.7,0.3-7.4,0.4-11.1   c0.1-3.1,0.5-6.2,0.4-9.3c0-1.4,0.2-2.3-1-3.2c-1-0.8-2.7-0.3-3.8-0.2c-4.7,0.5-9.1,0.9-13.9,0.9c-7.9,0-15.8-0.4-23.7-0.7   c-5.1-0.1-12.1-1.1-17.5,0.2c1.2-1.2,3-1.9,5.1-2.2c0,0,0.1,0,0.1,0c4.6,1.5,10.6,1,15.4,0.7c3.2-0.2,6.3-0.9,9.4-1.2   c3.7-0.4,7.7,0.2,11.4,0.2c3.9,0,7.9-0.2,11.8-0.2c2.5,0,6.3,0.5,7.7,2.9C82.3,25,81.9,28.2,81.9,29.5z"/><path d="M47.6,29.1c-1.5-0.7-4.3-0.2-5.9-0.2c-2.6,0-5.2,0.2-7.7,0.3c-0.5,0-0.8,0.4-0.9,0.7c-0.2,0.1-0.4,0.3-0.4,0.6   c-0.2,3.4,0,6.9,0.2,10.3c0,0.5,0.4,0.8,0.8,0.8c2,0.1,4.1-0.3,6-0.5c2.4-0.2,4.9-0.3,7.3-0.4c2.7-0.1,2.5-2.1,2.1-4.5   C48.8,34.6,49.4,30,47.6,29.1z M46.9,39c-0.6,0.4-3.4,0.2-4.3,0.2C40,39.5,37,40,34.3,40c-0.5-2.8-0.4-6-0.4-8.8c0,0,0,0,0,0   c3.4-0.2,6.7-0.3,10.1-0.4c0.5,0,1.3-0.1,1.8,0c1.1,0.3,0.4-0.3,0.9,0.7c0.5,1.1,0.2,2.7,0.4,3.8C47.1,36.4,48,38.2,46.9,39z"/><path d="M65.5,41.8c-1.1-1.1-3.7-0.5-5-0.5c-3.2,0-6.4,0.1-9.6,0.2c-1.3,0.1-1.2,1.9,0.1,1.9c-0.1,2.2-0.7,5.3,0.1,7.4   c0.4,1.1,0.9,1.2,2.1,1.2c2.9,0.1,5.8-0.1,8.7,0c1.3,0,3,0.5,3.9-0.6c0.9-1.2,0.3-4,0.3-5.3C66.1,44.8,66.6,42.9,65.5,41.8z    M64.5,49.6c-0.7,1.6-6.3,0.8-7.8,0.8c-1.8,0-3.9,0.6-4.4-1.5c-0.4-1.6-0.1-3.9-0.1-5.5c3.4-0.3,6.7-0.1,10.1-0.3   c1.7-0.1,2.2,0.9,2.2,2.5C64.4,46.5,64.9,48.7,64.5,49.6z"/><path d="M52.2,31.3c4.2,0.1,8.4,0.1,12.7,0.1c1.1,0,1.1-1.7,0-1.7c-4.2,0-8.4,0-12.7,0.1C51.2,29.8,51.2,31.3,52.2,31.3z"/><path d="M65.6,33.8c-2.3,0-4.5,0.3-6.8,0.3c-2.2,0-4.3,0.4-6.5,0.5c-0.8,0-0.7,1.1,0,1.2c2.3,0.2,4.7-0.2,7-0.2   c2.3,0,4.5,0,6.7-0.4C67,35.1,66.4,33.5,65.6,33.8z"/><path d="M64.2,39.8c1.2,0,1.2-1.9,0-1.9c-4,0-8,0-12,0.2c-1,0.1-1,1.4,0,1.5C56.2,39.8,60.2,39.8,64.2,39.8z"/><path d="M39.2,45.3c2.4,0.1,4.9,0.1,7.3,0.1c0.2,0.1,0.4,0.1,0.5,0c0.5-0.1,0.6-0.5,0.6-0.8c0.1-0.4-0.1-0.7-0.6-0.8   c-0.2-0.1-0.4-0.1-0.5,0c-2.4,0-4.9,0-7.3,0c-1.6,0-3.4,0.1-4.8,0.8c0,0,0,0,0,0c-0.2,0.2-0.4,0.5,0,0.7   C35.9,46.1,37.7,45.2,39.2,45.3z"/><path d="M46.9,47.1c-3.8,0-7.5,0.2-11.3,0.4c-0.9,0-0.9,1.4,0,1.5c3.8,0.2,7.5-0.3,11.3-0.3C47.9,48.7,47.9,47.1,46.9,47.1z"/><path d="M47.6,50.4c-4.1,0.5-8.2,0.5-12.3,0.7c-0.9,0.1-0.9,1.4,0,1.5c4.1,0.1,8.3-0.1,12.3-0.6C48.6,51.9,48.6,50.3,47.6,50.4z"/></g><text x="0" y="115" fill="#000000" font-size="5px" font-weight="bold" font-family="'Helvetica Neue', Helvetica, Arial-Unicode, Arial, Sans-serif">Created by Kaleo</text><text x="0" y="120" fill="#000000" font-size="5px" font-weight="bold" font-family="'Helvetica Neue', Helvetica, Arial-Unicode, Arial, Sans-serif">from the Noun Project</text></svg>