<svg xmlns="http://www.w3.org/2000/svg" data-name="Layer 2" viewBox="0 0 100 125" x="0px" y="0px"><path d="M78.6237044,29.7582193c-2.7764119,1.0957687-4.8769034,1.9247445-7.3466886,2.8994516v8.2601694c0,.8327506,.0003049,1.6655394-.0001144,2.49829-.0021346,4.1595208-1.5317609,6.1099265-5.6158339,7.2381053-5.4616439,1.5086742-11.0906287,1.6804099-16.6845063,1.9610439-4.4609524,.2237445-8.9426032,.047967-13.414915,.0263857-2.6709756-.0128497-5.0500765-.9847352-7.3746296-2.2182281-1.5858513-.8414823-2.1223335-2.0490851-2.0738847-3.7932096,.1067704-3.8431594-.023443-7.6945167,.1457658-11.5335962,.0797443-1.8098218-.5439916-2.6428012-2.2520133-3.0897946-1.6940702-.4432567-3.3804785-1.044675-4.9422007-1.8310981-1.7966475-.9047012-2.0757525-2.3700983-.6640655-3.7554232,1.0018732-.9832101,2.2985943-1.8183629,3.6168906-2.3000923,5.9372506-2.1696128,11.9367109-4.1680618,17.8990817-6.2697276,5.2489035-1.850163,10.4130693-2.1747222,15.8292376-.3249405,7.0623996,2.4120408,14.2842495,4.3556976,21.4312725,6.5213831,3.313504,1.0040288,3.8438492,1.8739558,3.7028482,5.4210388-.1074947,2.7027028-.2540229,5.4210388-.0700621,8.1110064,.0932002,1.362714,.8352183,2.695687,1.3624758,4.0105865,.7610394,1.8979775,.1912795,2.8226205-1.8124287,2.7359519-.7226157-.0313044-1.4485097-.1691811-2.1559923-.3320326-1.8910675-.4352495-2.3853524-1.2350943-1.2497208-2.8411515,2.4152755-3.4158409,1.4378365-7.125051,1.6694836-11.3941181Zm-.0292751-2.4153963c-.963907-.5678261-1.2795677-.8450665-1.6455451-.9559093-7.5311449-2.2814851-15.0770036-4.5147362-22.6002199-6.8219969-4.1056101-1.2591922-8.2021098-1.2625476-12.2408598,.0709211-6.5890037,2.1754466-13.137411,4.474967-19.6865807,6.7690349-.792716,.2776598-1.4839982,.8449521-2.7930316,1.6127299,2.1890412,.8126563,3.6855804,1.4898763,5.2490941,1.927833,7.1761457,2.0101548,14.4001303,3.8549415,21.545781,5.9663304,3.1299245,.9248336,6.01993,.8747695,9.0558919-.2940937,4.6324483-1.7834743,9.3463181-3.3550623,14.0240514-5.0210211,2.8116335-1.0012835,5.6202176-2.011108,9.0914186-3.2538282Zm-49.5950275,6.3905985c-.2210121,.2964196-.439089,.4526366-.4421385,.6128953-.0784101,4.1469761-.1800726,8.2947911-.1389807,12.441119,.0054129,.5439951,.6559081,1.2410425,1.1887309,1.5924068,2.1222954,1.3996616,4.5026161,2.039629,7.0453224,2.1553142,7.8038459,.3549485,15.5623687-.2868872,23.3070163-1.0980564,1.9464158-.203879,3.8782322-.7055884,5.7690329-1.2395935,2.1168825-.5978722,2.9595721-1.8524507,2.9962042-4.0812026,.0238623-1.4538438,.0200123-2.9086027,.0015629-4.3625991-.0255395-2.01698-.0763898-4.0335787-.122056-6.3341667-.9058903,.3375614-1.3664402,.5247015-1.8369009,.6820624-4.7049882,1.5739139-9.3962155,3.1922108-14.1298689,4.6747662-1.0370948,.3248643-2.279878,.4055084-3.3367945,.1769976-3.2355894-.6996783-6.4283335-1.5988126-9.6349146-2.43122-3.5783907-.9289516-7.1536938-1.8697997-10.6662154-2.7887232Zm21.3958222,44.749632c-2.2968027,1.5832557-3.3257782,4.2850434-6.1475513,5.2270354-1.0627106-3.0414463,2.2936007-3.6895734,2.7798807-6.005947-.6737095-.0419807-1.3190205-.1344069-1.9607103-.1137025-4.0536162,.1308227-8.1094433,.4501581-12.1584853,.376568-2.6738345-.0485771-5.3753051-.4789079-7.9944774-1.055847-2.2547959-.4966381-4.2027746-1.7461073-5.5861776-3.7089813-2.4046785-3.4119898-.642071-8.2572716,2.1378097-10.2226241,1.6172611-1.1433163,3.7508015-1.9345438,5.7240147-2.1206163,4.8497248-.4573646,9.7395504-.5343483,14.6159964-.6516731,7.1707709-.1724602,14.3437528-.2561928,21.5160485-.3591046,3.5365364-.0507124,7.0746356-.1236924,10.6103334-.0712642,4.5827797,.0679088,8.5773501,5.3445508,7.5071683,9.7908444-1.290584,5.3621286-4.1404125,7.9178799-9.1158907,8.2739342-4.0398173,.2891368-8.1062795,.2130682-12.1612299,.2785368-1.7452636,.0282159-3.4913276,.0047662-5.4540201,.0047662,.3926224,1.7458403,1.9087165,2.0546902,2.7555228,2.9817353,.4095471,.4484042,.5256565,1.1649358,.7746096,1.7601008-.6544595,.0232209-1.4414577,.2903188-1.9366956,.0208188-1.1661265-.6345529-2.2042506-1.5102375-3.2726789-2.3167931-.886831-.6694415-1.7430908-1.3793767-2.6334668-2.0877867Zm5.9210502-3.607099c.2253576,.2543626,.3593066,.5351872,.4890626,.5332426,5.685553-.0853722,11.3983608,.1074492,17.0466337-.406576,3.9515344-.3596003,5.4130807-4.0068879,5.2416991-7.6208503-.1281931-2.7033892-2.9811854-5.6421906-6.5044184-5.3737963-4.2214909,.3216232-8.4768311,.1850811-12.7163903,.2913865-1.050322,.0263094-2.0963747,.2237827-3.3180401,.3622313,2.7114577,4.4487338,3.3569593,8.4516182-.2385467,12.2143623Zm-21.1865125,.5145209c1.0614526,0,2.1698675,.0183403,3.27752-.0033173,3.8353868-.0749247,7.6706593-.240369,11.5055505-.2280151,4.8316946,.015595,8.0896597-5.1686208,5.7062895-9.3643647-.7812804-1.3753731-1.5168184-3.1224717-3.5306661-3.1383336-5.3699303-.0423239-10.7404325-.014413-16.3725431-.014413,.5819197,2.3407766,1.5404519,4.3455933,1.43898,6.2952364-.1070372,2.056101-1.2257441,4.0595068-2.0251309,6.4532073Zm-12.2324356-4.1588726c-1.0797877-1.4404603-1.1027352-1.6290875-.371962-2.5721852,1.5239084-1.966687,4.664468-2.9095941,6.6870068-1.6647005,3.1745614,1.9539517,2.7021186,4.938623,1.4528933,8.1498605,3.7781326-2.5336743,4.8887583-5.5779803,3.6203594-9.2352197-.7831101-2.2580735-1.994331-3.0793852-4.4234817-2.9593532-1.242402,.0613887-2.4955916,.0822074-3.7212214,.2696526-2.7576194,.4215991-5.3835387,3.2181389-5.656964,5.9105467-.2861569,2.8173204,3.8393512,6.2658003,6.6042893,5.4948196,1.3657159-.3808004,2.1306053-1.4967777,2.1840477-2.7440353,.0380043-.8879623-.4424435-2.0363117-1.0868397-2.6592351-.9565119-.924643-2.1183311-.3929637-3.0895187,.3523176-.7282573,.5588657-1.4657012,1.1057205-2.198609,1.6575322Z"/><text x="0" y="115" fill="#000000" font-size="5px" font-weight="bold" font-family="'Helvetica Neue', Helvetica, Arial-Unicode, Arial, Sans-serif">Created by Mazeee.</text><text x="0" y="120" fill="#000000" font-size="5px" font-weight="bold" font-family="'Helvetica Neue', Helvetica, Arial-Unicode, Arial, Sans-serif">from the Noun Project</text></svg>