<svg xmlns="http://www.w3.org/2000/svg" data-name="Layer 1" viewBox="0 0 100 125" x="0px" y="0px"><title>Planning-brainstorming</title><path d="M83.67,24.91s0-.06,0-.1C84.44,10,63.95,1.2,55.25,13.51,52.11,9.32,47.12,6.7,41.78,7.77a12.48,12.48,0,0,0-9.47,8.66c-4.09.93-8.73,2.46-10.61,6.59-1.61,3.54-.29,7.84,2.4,10.48C17.46,40.83,23.4,52.89,33,53.2c3.06,12,18.35,15.51,27,7,8.28,7.65,23.09,1.57,23-9.85C96.32,47.83,96.11,28.68,83.67,24.91Zm-1.34,23a1.16,1.16,0,0,0-1.92.87c-.86,10.59-11.09,15.91-19.77,9.87A1.28,1.28,0,0,0,58.56,58c-8.41,7.53-19.63,4.58-24-5.29a1.23,1.23,0,0,0-.93-1.94c-9.16-.73-12.72-9.21-8.43-16.74.83,0,1.61-.88,1-1.71-2.08-2.8-4.28-6-2.21-9.55,1.7-2.89,5-4,8-5.1,0,.21-.07.42-.09.64-.07.72.93.72,1.16.16,3.42-8.42,14.37-12.06,19.75-3a1.63,1.63,0,0,0,2.95-.61c4-3.8,9.12-6.36,14.83-4.82,6.8,1.83,10.35,8.08,10.45,14.74a1.27,1.27,0,0,0,1.82,1.14C93.74,30.4,92.48,43.75,82.34,47.87ZM15.44,67.48a4.34,4.34,0,0,1,3.67-4.1c-.54-1.66,1.32-3.55,3.09-3.77,1.56-.2,5.21.77,4.19,3-.09.2-.38.12-.44-.06a2.74,2.74,0,0,0-3.16-1.7c-1.06.1-2.71,1.29-1.58,2.36a.85.85,0,0,1-.65,1.47l-.11,0c-1.59,0-3.09,1-3,2.74s1.52,2.27,3,2.29a1.1,1.1,0,0,1,.29,2.15A4.4,4.4,0,0,1,15.44,67.48ZM31,69a4.61,4.61,0,0,1-1.44,5.62c-3.1,1.88-5.27-.74-6.91-3-.73-1,.93-1.94,1.64-1,.94,1.29,2.28,3.64,4.3,2.27.93-.63,1.33-2.67.43-3.49A.92.92,0,0,1,29.24,68c3.53-1.64,1.65-6.26-1.86-5.88-.54.06-.65-.83-.13-.94C32,60.25,34.33,66.15,31,69ZM20.74,87.37a3.73,3.73,0,0,1-5.51.61c-1.52,1.91-4.68,1.48-6-.6s-.56-5.92,2-6.37a3.86,3.86,0,0,1,3.22-3.25,3.8,3.8,0,0,1,4,2.46c.26.65-.78,1-1.1.47a2.3,2.3,0,0,0-4.36,1.07.85.85,0,0,1-1.54.5c-1.24.65-1.29,3.15-.63,4.09a2,2,0,0,0,3.4-.06.87.87,0,0,1,1.62.31,2.27,2.27,0,0,0,3.68-.76,2.81,2.81,0,0,0-.86-3.41c-.85-.72.24-1.92,1.13-1.46C22,82.14,22.15,85.45,20.74,87.37Z"/><text x="0" y="115" fill="#000000" font-size="5px" font-weight="bold" font-family="'Helvetica Neue', Helvetica, Arial-Unicode, Arial, Sans-serif">Created by Caroline Mackay</text><text x="0" y="120" fill="#000000" font-size="5px" font-weight="bold" font-family="'Helvetica Neue', Helvetica, Arial-Unicode, Arial, Sans-serif">from the Noun Project</text></svg>