<svg xmlns="http://www.w3.org/2000/svg" data-name="Layer 2" viewBox="0 0 100 125" x="0px" y="0px"><path d="M30.7289722,21.530853c.6788702-.909964,1.1405776-1.9278042,1.9267042-2.4975625,1.5345242-1.1121688,3.1537179-2.2528634,4.9170979-2.8651159,1.9858004-.6894151,3.4923538,.6141878,4.6231732,2.1955594,1.0370646,1.450355,.5197521,2.8140387-.3307284,4.1397723-.3546613,.5528448-.6743696,1.1280726-.98453,1.6502038,.8384509,1.0536026,1.6035048,1.1583655,2.3662874,.2282904,.5816664-.709442,1.0481268-1.5181774,1.6626851-2.194718,1.1288425-1.2427647,2.4890224-1.951197,4.2639272-1.7774338,2.6353118,.2579942,3.8719154,1.540897,3.7668462,4.2441985-.0478238,1.2298903-.3214328,2.4511134-.5084796,3.7903104,1.4241973,1.1804961,2.5673406,1.1668643,4.4517732,.0619321,4.1173013-2.4138364,8.4607245-4.5967738,12.9596484-6.1602221,4.4163996-1.5347543,8.1808483,2.388424,7.384711,6.9670221-.8604911,4.9484234-2.9850098,9.3513229-5.5012459,13.6057873-.689722,1.1661911-1.7971973,2.2181949-.259182,3.6858,.3409493-.0343319,.8004275-.0225514,1.2283596-.132952,2.9228852-.7545447,4.1935586-.4959615,5.1677415,1.0927309,1.339023,2.1836947,1.1690531,4.8512338-.5269866,6.6983412-.8808067,.9590216-1.8983128,1.7925802-2.9005927,2.7261894,1.2591485,1.26986,2.2253819,.6812528,3.1331078,.3577924,1.8032121-.6425453,3.3818166-.5064799,4.6142141,1.1165445,1.3285498,1.7495812,1.4914534,3.9582675,.1740078,5.7593466-1.1393578,1.5575581-2.5206946,2.937987-3.9764799,4.604347,.1706429,.6438075,.417501,1.5018529,.6237277,2.3697434,.3390986,1.426878,.1520097,2.670905-.9909233,3.7742384-.7213101,.6964834-1.1811668,1.658955-1.7877756,2.4801441-1.481569,2.0058083-2.9612452,2.16838-4.4195542,.1622351-2.2182314-3.0517536-4.2588378-6.2388994-6.2610421-9.4397612-2.3561506-3.766581-4.5907859-7.6092308-6.9643079-11.5623654-6.046361,4.1810042-11.750637,8.1253875-17.7631386,12.2829148,1.62218,2.979219,3.2386818,6.0939986,5.0022301,9.1231166,.8396707,1.4421928,1.0528376,2.7519384,.0942595,4.1574431-1.4270995,2.0924796-3.3170421,2.4914197-5.2152287,.7563118-2.6160477-2.391285-5.0477404-4.9882249-7.5018519-7.5511695-.9711124-1.0140536-1.8268506-1.7935058-3.4573588-1.7873631-2.3522389,.0089196-3.3604074-.907692-3.6367504-3.2617-.204965-1.7453738-1.0361813-2.9667653-2.0809852-4.1953092-2.0761482-2.4408475-4.1448936-4.8883426-6.1915568-7.3539293-1.0149824-1.2229902-1.6616336-2.5034527-.4035786-3.9969751,1.4049752-1.6680429,3.0075126-2.1688849,4.7994943-1.233761,2.5326821,1.3216945,5.0039546,2.7611945,7.8615185,4.3506443,1.8354311-3.0072399,3.4828479-6.1039279,5.5148738-8.9231837,1.9966102-2.7700299,4.3837179-5.2584204,6.9195966-8.2479895-3.0233277-2.1370774-6.0119969-4.329271-9.0828539-6.3994516-3.4156339-2.3024259-6.9492078-4.4308362-10.347849-6.7571598-2.0643289-1.4129938-2.0281982-1.7229066-.6784916-3.8822829q2.3796208-3.8071398,8.3154866-2.1605544Zm-1.7064289,49.1742374c1.7877335-.5804449,2.9964505-.7669985,3.994356-1.3284262,11.297468-6.3572099,22.0012822-13.5338418,31.2553678-22.7188905,5.0079925-4.9706382,8.2820479-10.8573831,9.7833857-17.7391644,.4228007-1.937986-.1030082-2.9785458-2.1534569-2.928226-2.0872944,.0510771-4.261067,.6072878-6.2106947,1.4005401-4.0337254,1.6411159-7.7232208,3.9165307-10.9102513,6.9536427-4.6336044,4.4158581-9.5383362,8.5733012-13.9036313,13.2378132-5.0491285,5.3953273-8.0036859,12.1794983-11.0289484,18.8377015-.4828643,1.0627746-.4713815,2.3503896-.826127,4.2850097Zm44.4529573,3.8784122c2.2951616-1.284754,2.4520925-2.7514335,1.7595945-4.7723041-1.5198448-4.4356326-2.7593507-8.9665194-4.2009193-13.4301728-.8953599-2.7723019-1.9513522-5.4926852-3.0769139-8.6315308-2.5564888,2.3971753-4.7785478,4.4807353-7.0154965,6.5782637,4.2728442,6.9053424,8.4042361,13.5820579,12.5337352,20.2557441Zm-28.2503789-36.1894538c2.3205246-2.0956771,4.4148433-3.9871299,6.6831277-6.0356848-.6987231-.4145915-1.1441949-.7980487-1.6599511-.9669314-7.5018519-2.4570878-15.006606-4.9060976-22.5349566-7.2797959-.5825076-.1836926-1.3470568,.2101988-2.0269785,.3357459-.0466881,.2371258-.0933341,.4743358-.1399802,.7114616,6.4954079,4.3685675,12.9908159,8.7371351,19.6787386,13.2352046Zm-3.2550437,41.5705603l.6720562-.5003371c-1.5689724-2.9920093-3.1379449-5.9839345-4.8360457-9.2221575-1.1359088,.8206-1.9308683,1.3948181-3.0378809,2.1945497,2.5373088,2.6521402,4.8696106,5.0900426,7.2018704,7.5279449Zm-20.5681258-23.0930915c-.1462052,.190256-.2924105,.3805962-.4386157,.5709363,1.9064306,2.2224023,3.8129033,4.4447204,6.0911563,7.1005631,.6491749-1.5657203,1.0548986-2.544264,1.5340195-3.6998526-2.5582554-1.4138353-4.8724287-2.692699-7.18656-3.9716469Zm13.1092606-34.4805997c2.8936526,.888759,3.807898,.3292666,4.5851497-2.5557921q-2.5410943-.4642381-4.5851497,2.5557921Zm45.2721021,38.3932596c-3.4845725-.2241672-3.8627881,.3592229-2.4109565,3.8438278,1.3098325-1.0212061,2.8166382-1.7797057,2.4109565-3.8438278ZM49.4263775,23.6710439c-1.982772,.1571863-2.756154,1.1170493-3.0191216,2.7187845,3.0381333,.5789303,3.0700158,.5522557,3.0191216-2.7187845Zm25.6137211,25.7852015q-2.5240174,.6369916-1.2310936,3.2521914c1.5696454-.6656857,2.0065367-1.7110419,1.2310936-3.2521914Zm-18.7368168-12.6924575c.1886031-2.5825508,2.89462-4.6196617,5.890734-4.4346228,2.6515474,.1636656,4.8062242,2.613601,4.6812178,5.3225403-.1325353,2.8711745-2.8475954,5.4685351-5.6045065,5.3616686-2.9362187-.1137665-5.2069006-2.9705519-4.9674453-6.2495861Zm5.017288,3.0212924c2.3556038-1.5624386,2.71363-2.2161754,1.9480714-3.3389468-.654727-.9601996-2.0237818-1.1268945-2.9608245-.3605692-1.0617546,.8683954-.8669685,1.6619002,1.0127532,3.699516Z"/><text x="0" y="115" fill="#000000" font-size="5px" font-weight="bold" font-family="'Helvetica Neue', Helvetica, Arial-Unicode, Arial, Sans-serif">Created by Ahmadd</text><text x="0" y="120" fill="#000000" font-size="5px" font-weight="bold" font-family="'Helvetica Neue', Helvetica, Arial-Unicode, Arial, Sans-serif">from the Noun Project</text></svg>